<?xml version="1.0" encoding="utf-8"?>
<!-- Generator: Adobe Illustrator 23.0.1, SVG Export Plug-In . SVG Version: 6.00 Build 0)  -->
<svg version="1.1" id="Layer_1" xmlns="http://www.w3.org/2000/svg" xmlns:xlink="http://www.w3.org/1999/xlink" x="0px" y="0px"
	 width="80px" height="80px" viewBox="0 0 80 80" style="enable-background:new 0 0 80 80;" xml:space="preserve">
<polygon style="fill-rule:evenodd;clip-rule:evenodd;fill:#EEDFC6;" points="18.5,24.6 20.9,22.4 17,18 24,19.6 26.5,17.4 19.2,9.3 
	16.7,11.5 20.8,16 13.6,14.3 11.2,16.5 "/>
<path style="fill-rule:evenodd;clip-rule:evenodd;fill:#EEDFC6;" d="M23.1,43.6c0.7-11.4,10.8-20.5,22.2-20s20.2,10.1,19.4,21.5
	c-0.7,11.4-10.8,20.5-22.2,20C31,64.8,22.2,55.1,23.1,43.6 M16.1,43.3C15.5,51,18.2,58,22.8,63.2s11.5,8.5,19.1,8.8
	s14.8-2.6,20.1-7.4l0,0c5.3-4.8,8.9-11.6,9.4-19.3c0.5-7.6-2.1-14.7-6.8-19.9l0,0c-4.7-5.2-11.5-8.5-19.1-8.8
	C30.4,16,17.1,28,16.1,43.3z"/>
<path style="fill-rule:evenodd;clip-rule:evenodd;fill:#EEDFC6;" d="M40.4,40.6c1.5-1.3,3.5-1.7,5.2-1.1L30.9,30l7.9,15.4
	C38.5,43.7,39,41.8,40.4,40.6z"/>
<path style="fill-rule:evenodd;clip-rule:evenodd;fill:#EEDFC6;" d="M47.3,48.2c-1.4,1.3-3.3,1.6-5,1.2l14.6,9.5L49,43.3
	C49.3,44.9,48.8,46.9,47.3,48.2z"/>
</svg>
