<?xml version="1.0" encoding="utf-8"?>
<!-- Generator: Adobe Illustrator 23.0.1, SVG Export Plug-In . SVG Version: 6.00 Build 0)  -->
<svg version="1.1" id="Layer_1" xmlns="http://www.w3.org/2000/svg" xmlns:xlink="http://www.w3.org/1999/xlink" x="0px" y="0px"
	 width="60px" height="60px" viewBox="0 0 60 60" style="enable-background:new 0 0 60 60;" xml:space="preserve">
<polygon style="fill:#FFFFFF;" points="44.6,17.9 21.9,17.9 19.1,20.7 44.6,20.7 "/>
<polygon style="fill:#FFFFFF;" points="44.6,28.8 44.6,26 13.8,26 11,28.8 "/>
<path style="fill:#FFFFFF;" d="M12,7.8c12-9.8,29.8-8,39.6,4s8,29.8-4,39.6s-29.8,8-39.6-4c-2.8-3.5-4.8-7.6-5.7-11.9
	c-0.9-4.2-0.8-8.6,0.3-12.8c0-0.1,0.1-0.2,0.2-0.3c0.1-0.1,0.3-0.2,0.5-0.1c0.3,0.1,0.5,0.4,0.4,0.7c-1,4-1.1,8.3-0.3,12.3
	c0.9,4.2,2.7,8.1,5.5,11.5c9.4,11.5,26.4,13.3,38,3.9s13.3-26.4,3.9-38s-26.4-13.3-38-3.9c-0.2,0.2-0.6,0.2-0.8-0.1
	C11.7,8.4,11.7,8,12,7.8z"/>
</svg>
