<?xml version="1.0" encoding="utf-8"?>
<!-- Generator: Adobe Illustrator 23.0.1, SVG Export Plug-In . SVG Version: 6.00 Build 0)  -->
<svg version="1.1" id="Layer_1" xmlns="http://www.w3.org/2000/svg" xmlns:xlink="http://www.w3.org/1999/xlink" x="0px" y="0px"
	 width="546.9px" height="593.8px" viewBox="0 0 546.9 593.8" style="enable-background:new 0 0 546.9 593.8;" xml:space="preserve"
	>
<style type="text/css">
	.st0{fill:none;stroke:#5F7A5A;stroke-miterlimit:10;enable-background:new    ;}
</style>
<path class="st0" d="M178,486.6c-2.3,4-4.4,8.1-6.8,12.1c-7.1,11.5-17.6,20.9-29.9,26.8c-1.6,0.8-3.3,1.5-5.1,1.4
	c-1.8,0-3.6-1.1-4.1-2.8c-0.5-1.8,0.7-3.6,1.9-5c8-9.7,19.7-16.4,25.5-27.5c7.9-15.1,3-34.7,9-50.2c-5.2-7.4-10.7-14.6-16.8-21.2
	c-2.6,2.2-5.2,4.4-7.4,6.9c-3.5,4.2-5.8,9.4-8,14.5c-2.7,6.4-5.2,12.8-7.6,19.2c-2.6,7-5.1,14.1-9.9,19.9c-0.9,1-1.9,2.1-3.3,2.2
	c-2.9,0.3-4.3-3.5-4.3-6.4c-0.3-15.7,8.5-30.1,17.8-42.8c5-6.9,10.5-13.8,17.5-18.6c-3.5-3.3-7.2-6.3-11.2-9
	c-10.5-7-22.5-11.2-34.9-13.6c-0.1,0.5-0.1,1.1-0.2,1.6c-0.5,7.2,0.4,14.5,1.6,21.6c1,6,2.2,12.3,0.1,18c-0.4,1.3-1.6,2.7-2.9,2.2
	c-0.9-0.4-1.1-1.5-1.2-2.4c-1-8.5-0.4-17.2-1.3-25.7c-0.6-5.8-2-11.7-4.7-16.7c-1.9-0.2-3.8-0.5-5.7-0.6C70.6,389.1,55,390,39.5,391
	c-6.7,10.2-13.4,20.4-20.1,30.6c-2.8,4.2-5.5,8.4-8,12.8c2.6,4.6,6.1,8.6,11,10.6c2.6,1.1,5.5,1.7,8.3,2.3
	c8.4,1.8,16.7,4.4,24.6,7.7c7.3,3.1,15,7.3,18.1,14.6c0.5,1.3,0.9,2.9,0.2,4.2c-0.9,1.8-3.3,2-5.3,1.8
	c-11.5-1.1-20.3-10.7-30.8-15.5c-4.2-1.9-8.8-3.1-13.2-4.6c-6.5-2.2-12.8-5.2-18.7-8.8c0,0.1-0.1,0.2-0.1,0.3
	c-3.4,9.4-4.5,19.5-5,29.5c-0.3,5.4-0.4,10.8-0.2,16.2l0,0c9.4,1.3,18.8,3.7,27.7,7.1c5.6,2.1,11,4.6,16.9,5.7
	c11,2,22.1-1.4,33.1-3.2c1.6-0.3,3.4-0.5,4.9,0.1s2.8,2.3,2.2,3.9c-0.2,0.7-0.7,1.2-1.2,1.7c-4.8,4.5-12,5.1-18.6,5.1
	c-18.1,0-36.1-2.9-53.9-6.2c-3.4-0.6-6.9-1.3-10.4-1.5c1,9.5,2.9,18.8,6.2,27.8c1.1,3,2.4,5.9,3.8,8.8c10.2,4.3,20.5,8.3,31.5,8.8
	c9,0.4,17.9-1.6,26.7-3.7c8.7-2.1,17.3-4.4,25.9-6.9c1-0.3,2.2-0.6,3.2-0.4c2.5,0.6,3.3,3.9,2.3,6.2c-1.1,2.3-3.4,3.6-5.6,4.8
	c-14.1,7.1-30.5,9.3-46.1,7.3c-12.3-1.6-24.3-5.6-35.3-11.4c7.1,12.4,17.3,23,30.2,29c4.6,2.1,9.4,3.7,14.3,5
	c8.2,2.2,16.9,3.6,25.3,2.2c16-2.7,26.2-16.5,37.3-28.5c0.7,3.8,1.3,7.5,2,11.3l4.9,27.7l3.4-0.6l-5.3-27.6
	c-0.8-3.9-1.5-7.8-2.3-11.8c8.2,1.7,16.7,2.8,25,1.4c11.8-2,22.3-9,29.6-18.5c7.3-9.4,11.4-21.1,12.9-32.9c0.9-7,1-14.2-0.5-21.2
	c-0.7-3.2-1.7-6.3-2.9-9.3C184.1,477.1,180.8,481.7,178,486.6z"/>
<path class="st0" d="M46.3,422.7c-5.1-1.8-10.8,0-15.5,2.7c-5.7,3.3-4.2,9.5,1.2,12.6c2.6,1.5,5.8,2,8.9,2c2.3,0,4.6-0.3,6.6-1.2
	C55.2,435.5,53.8,425.4,46.3,422.7z"/>
<path class="st0" d="M129.9,412c-3.3-2.3-7.2,0.6-7.3,4.1c-0.1,2.2,0.4,4.6,2.8,5.4C130.8,423.5,134.3,415.1,129.9,412z"/>
</svg>
