<?xml version="1.0" encoding="utf-8"?>
<!-- Generator: Adobe Illustrator 23.0.1, SVG Export Plug-In . SVG Version: 6.00 Build 0)  -->
<svg version="1.1" id="Layer_1" xmlns="http://www.w3.org/2000/svg" xmlns:xlink="http://www.w3.org/1999/xlink" x="0px" y="0px"
	 width="546.9px" height="593.8px" viewBox="0 0 546.9 593.8" style="enable-background:new 0 0 546.9 593.8;" xml:space="preserve"
	>
<style type="text/css">
	.st0{fill:none;stroke:#5F7A5A;stroke-miterlimit:10;}
	.st1{fill:#406325;stroke:#5F7A5A;stroke-miterlimit:10;}
</style>
<path class="st0" d="M348.6,140.1c0-0.1,0.1-0.2,0.1-0.3c0.1-0.1,0.1-0.2,0.2-0.3c0.2-0.3,0.6-0.6,0.9-0.8c0.2-0.2,0.5-0.3,0.8-0.5
	c5.1-3.1,11.3-3.5,17.4-4.2c0.9-0.1,1.8-0.2,2.7-0.3c4.6-0.7,9.1-1.8,13.5-3.5c1.2-0.5,2.5-1,3.7-1.5c0.6-0.3,1.2-0.6,1.8-0.8
	c3.6-1.7,7-3.8,10.2-6.2c2.4-1.8,4.7-3.8,7-5.8c2.3-2.1,4.6-4.2,6.6-6.5c2.1-2.3,4-4.7,5.6-7.3c2.1-3.4,3.8-7.3,6-10.7
	c1-9.2,0.8-18.4-1.7-27.3c-0.8,0.8-1.6,1.6-2.4,2.4c-0.8,0.9-1.6,1.9-2.4,2.8c-2.4,2.9-4.6,5.8-7.1,8.5c-15,16-38.4,21.2-55.3,35.2
	c-0.2,0.2-0.5,0.4-0.7,0.6c-2.4,2-5.1,4.2-7.9,5.1c-0.6,0.2-1.1,0.3-1.7,0.4c-0.9,0.1-1.8,0.1-2.7-0.1c-0.9-0.2-1.9-0.7-2.1-1.6
	c-0.1-0.4,0-0.7,0.1-1.1c0.1-0.3,0.3-0.7,0.5-1c0.7-0.9,1.5-1.7,2.3-2.5c1.4-1.2,3.1-2.3,4.8-3.2c2-1.2,4.1-2.2,6.2-3.3
	c10-4.9,20.7-8.7,30.4-14c4.5-2.4,8.7-5.2,12.6-8.5c2.5-2.2,4.8-4.6,6.9-7.2l0,0c1.9-2.3,3.5-4.8,5-7.4c1.4-2.5,2.6-5.1,3.7-7.7
	c1.5-3.9,2.6-8,3.2-12.1c-1.7-2.8-3.7-5.5-5.8-8c-2.8-3.4-6-6.5-9.3-9.4c-0.8-0.7-1.7-1.4-2.5-2.1c-2.3-1.9-4.7-3.7-7.3-5.5
	c-0.1,0.1-0.3,0.2-0.4,0.4c-1.8,1.9-3.3,4.1-4.7,6.4c-2.3,3.6-4.4,7.2-6.3,11.1c-0.6,1.3-1.2,2.6-1.8,3.9c-0.8,1.9-1.6,3.9-2.5,5.9
	c-0.3,0.6-0.6,1.3-0.9,1.9c-2,3.7-4.7,6.9-7.2,10.3c-1.4,2-2.7,4.1-4.3,6C359,75.9,352.5,80,346.1,84c-0.1,0.1-0.2,0.1-0.3,0.2
	c-0.2,0.1-0.5,0.3-0.7,0.3c-0.6,0.2-1.3,0.3-1.7-0.2c-0.5-0.5-0.4-1.3-0.1-2.1c0-0.1,0.1-0.2,0.1-0.3c0.2-0.5,0.4-0.9,0.7-1.3
	c3.2-5.6,9.6-8.8,14.9-13c0.8-0.6,1.6-1.3,2.3-2c2.3-2.1,4.2-4.6,5.9-7.3c2.8-4.3,5-9,6.7-13.9c0.2-0.5,0.3-1,0.5-1.6
	c0.5-1.6,1-3.1,1.7-4.6c0.8-1.7,1.9-3.3,3.1-4.7c0.4-0.5,0.8-1,1.2-1.5c2.8-3.4,5.8-6.6,8.9-9.6c-0.8-0.5-1.6-1-2.4-1.5
	c-1.6-1-3.3-2-4.9-2.9c-0.4-0.2-0.9-0.5-1.3-0.7c-0.7-0.4-1.4-0.7-2.1-1.1c-1.8-0.9-3.6-1.7-5.4-2.4c-1.5-0.6-2.9-1.3-4.3-2
	c-1.4-0.8-2.8-1.6-4.1-2.4c-1.4-0.8-2.7-1.7-4.1-2.5s-2.7-1.6-4.2-2.4c-0.3,0.8-0.5,1.6-0.7,2.5c-0.6,2.5-1,5.1-1.7,7.5
	c-0.5,1.7-1.2,3.3-1.9,4.9c-0.2,0.4-0.4,0.8-0.6,1.2c-0.4,0.8-0.8,1.6-1.2,2.4c-1.8,3.6-3.5,7.1-3.9,11c-0.2,1.6-0.1,3.2-0.1,4.8
	c0,0.9,0,1.7-0.1,2.6c-0.1,1.8-0.4,3.6-1.3,5.1c-0.2,0.4-0.6,0.8-0.9,1.2c-0.6,0.6-1.3,1-2.2,1c-0.2,0-0.4,0-0.7-0.1
	c-1.2-0.4-1.9-1.6-2.4-2.8c-0.1-0.3-0.2-0.6-0.3-1c-0.1-0.6-0.3-1.2-0.3-1.9c-0.5-3.8-0.1-7.6,0.9-11.3c0.2-0.6,0.4-1.2,0.5-1.8
	c0.6-1.8,1.3-3.6,2.1-5.3c0.6-1.3,1.3-2.7,1.9-4c0.8-1.5,1.6-3,2.4-4.5c2.3-4.3,4.7-8.6,7-12.9c-1.5-0.6-3.1-1.2-4.8-1.6
	c-0.5-0.1-1.1-0.2-1.6-0.3c-0.2,0-0.4-0.1-0.6-0.1c-0.3-0.1-0.7-0.1-1-0.2c-0.2,0-0.5-0.1-0.7-0.1c-0.3,0-0.6-0.1-0.9-0.1
	s-0.5,0-0.8-0.1c-0.3,0-0.6,0-0.8-0.1c-0.3,0-0.5,0-0.8,0s-0.5,0-0.8,0s-0.6,0-0.9,0c-0.2,0-0.5,0-0.7,0c-0.3,0-0.6,0-0.9,0
	c-0.2,0-0.4,0-0.6,0c-0.3,0-0.7,0-1,0.1c-0.2,0-0.4,0-0.6,0c-0.4,0-0.7,0.1-1.1,0.1c-0.1,0-0.3,0-0.4,0c-0.4,0-0.8,0.1-1.2,0.1
	c-0.1,0-0.2,0-0.3,0c-0.5,0.1-0.9,0.1-1.4,0.2l0,0c-3.1,0.4-6.3,1-9.4,1.6c-4.5,0.9-9,1.8-13.5,3c0.2,1.2,0.4,2.4,0.6,3.6
	c0.3,1.4,0.6,2.8,1.2,4.1c0.9,2,2.2,3.6,3.2,5.6c1,1.9,1.5,4.3,0.5,6.2c-1.3,0.2-2.4-0.9-3.2-2c-2.8-3.9-4.9-8.4-6-13.1
	c-0.3-1.1-0.5-2.1-1-3.1c-4.5,1.4-9,3-13.2,5.2c-2.5,1.3-5,2.7-7.3,4.3c1.9,3.1,3.5,6.5,4.7,9.9c1.4,4,2.3,8.2,4.9,11.5
	c3.5,4.4,9.4,6.2,13.6,10c1.1,0.9,2,2.7,1,3.6c-0.4,0.4-1,0.5-1.5,0.6c-3.2,0.3-6.2-1.4-8.6-3.5c-2.4-2.2-4.2-4.8-6.5-7.1
	c-1.9-1.9-4.1-3.6-5.9-5.5c-4-4.2-6.3-9.6-7.6-15.3c-2.8,2.1-5.5,4.4-8.1,6.7c-5.7,4.9-11.3,10.1-15.4,16.4c0,0,0,0.1-0.1,0.1
	c1.4,5.3,3.6,10.3,7.2,14.4c8.8,10,23.5,12.2,34,20.5c1.9,1.5,3.7,3.3,5.5,5c1,1,2.1,2.1,2.1,3.5c0.1,1.8-1.6,3.2-3.2,3.8
	c-3.2,1.1-6.7,0.4-9.9-0.8c-9.1-3.4-16.4-10.4-23.4-17.2c-2-2-4-3.9-5.8-6c-2-2.3-3.8-4.9-5.4-7.5c-1.8-2.9-3.4-5.9-4.8-8.9
	c-1.8,3.8-3.3,7.7-4.8,11.7c-3.6,9.6-7.3,19.3-10,29.2c8.2,5.4,17.5,9,26.8,12.5c4.1,1.5,8.2,3.1,12.6,3.9
	c7.6,1.5,16.2,0.9,22.4,5.6c1,0.7,1.9,1.9,1.5,3c-0.3,0.7-1,1.2-1.7,1.5c-3.4,1.5-7.3,1.1-10.9,0.4c-11-2-21.6-5.7-31.4-11
	c-3.3-1.8-6.5-3.7-10-5.1c-3.7-1.4-7.5-2.1-11.4-2.3c-0.3,1.3-0.6,2.7-0.8,4c-1.8,10-2.3,20.4-0.6,30.4c1.9,1,3.7,2,5.6,3
	c2.4,1.3,4.9,2.6,7.5,3.5c7.7,2.9,16.3,2.8,24.4,1.4c8.1-1.5,15.9-4.4,23.7-7c2.2-0.7,4.5-1.5,6.8-1c2.3,0.4,4.4,2.5,4.1,4.8
	c-0.4,2.6-3.3,3.8-5.8,4.5c-9.5,2.7-19.2,4.9-29,6c-3.6,0.4-7.2,0.6-10.8,0.4c-8.7-0.6-16.9-4.3-24.8-8.1c0.5,1.8,1.1,3.6,1.8,5.4
	c5.3,13.6,16.4,25.4,30.4,29.4c10.6,3,22,1.5,32.3-2.4c9.7-3.6,19.4-11.6,25.9-21.6l3.7,28.5l3.4-0.5l-4.3-28.4
	c2.9,2.6,6.2,4.9,9.7,6.7c0.7,0.4,1.4,0.7,2.1,1.1c1.4,0.7,2.9,1.3,4.3,1.8c5.1,1.9,10.6,3.1,16.1,3.4c2.3,0.1,4.7,0.1,7,0
	c10.2-0.7,20.1-4,28.8-9.3c6.3-3.8,12-8.8,16.2-14.8c1.4-2,2.6-4.1,3.6-6.4c1.5-3.5,2.5-7.1,3.6-10.8c0.7-2.6,1.4-5.2,2.1-7.9
	c0.7-2.6,1.4-5.3,2-8c-1.4,1-2.8,2.1-4.1,3.3c-2.2,1.9-4.4,3.9-6.6,5.7c-4.4,3.6-9.3,6.6-14.3,9.2c-2.2,1.1-4.4,2.2-6.6,3.2
	c-4.4,2.1-9,3.9-13.5,5.8c-3.1,1.3-6.2,2.6-9.3,3.8c-3.8,1.6-7.8,3.2-11.9,3.5c-1.4,0.1-2.7,0.1-4.1-0.1c-0.4-0.1-0.8-0.2-1.1-0.3
	c-0.1,0-0.1,0-0.2-0.1c-0.2-0.1-0.3-0.2-0.5-0.2c0,0-0.1,0-0.1-0.1c-0.2-0.1-0.3-0.2-0.5-0.3l0,0l0,0c-0.2-0.2-0.3-0.3-0.4-0.5
	s-0.2-0.4-0.2-0.6l0,0C348.6,140.5,348.6,140.3,348.6,140.1z"/>
<path class="st0" d="M279,53.4c0.6-2.2-1.6-4.2-3.6-5.3c-1.3-0.7-5.5-3.8-5.4-0.7c0.1,2.7,1.5,5.5,3.8,7.1
	C275.7,55.9,278.3,56.2,279,53.4z"/>
<path class="st0" d="M355,53.4c-0.1,0-0.2,0-0.3,0c-0.6,0-1.1,0.3-1.6,0.6c-1.1,0.6-2.3,1.2-3.2,2.1c-1.4,1.2-3.3,4.6-0.1,4.9
	c0.5,0,1.1-0.2,1.6-0.4c1.5-0.7,3.3-1.4,4.5-2.5C356.9,57,356.7,53.7,355,53.4z"/>
<path class="st0" d="M406.8,54c-4.5-1.1-7.9,6.7-7.9,10c0,1.7,1.3,3.4,2.9,3.3c1-0.1,1.9-0.8,2.5-1.6c2.1-2.5,4.2-7.3,3.3-10.6
	C407.5,54.7,407.3,54.2,406.8,54C407,54.1,406.9,54.1,406.8,54z"/>
<path class="st1" d="M398.4,64.2c0.4-3.6,0.9-7.1,1.7-10.6C399.3,57.1,398.7,60.6,398.4,64.2"/>
<polyline class="st1" points="398.4,64.2 398.4,64.2 398.4,64.2 "/>
</svg>
