<?xml version="1.0" encoding="utf-8"?>
<!-- Generator: Adobe Illustrator 23.0.1, SVG Export Plug-In . SVG Version: 6.00 Build 0)  -->
<svg version="1.1" id="Layer_1" xmlns="http://www.w3.org/2000/svg" xmlns:xlink="http://www.w3.org/1999/xlink" x="0px" y="0px"
	 width="443.8px" height="293.2px" viewBox="0 0 443.8 293.2" style="enable-background:new 0 0 443.8 293.2;" xml:space="preserve"
	>
<style type="text/css">
	.st0{fill:none;stroke:#698563;stroke-miterlimit:10;}
</style>
<g>
	<path class="st0" d="M349.3,196.5c-1.3-1-2.6-2.1-3.8-3.1c-0.8-0.6-1.5-1.2-2.3-1.9c0.8,0.6,1.5,1.2,2.3,1.9
		C346.7,194.4,348,195.4,349.3,196.5z"/>
	<path class="st0" d="M279.3,234.9c-0.1-0.1-0.3-0.1-0.5-0.1C279,234.7,279.1,234.8,279.3,234.9z"/>
	<path class="st0" d="M275.5,238.1c-1.7,3.9-1.8,8.4-1.1,12.7c0.3,1.7,0.7,3.4,1.2,5.1c-0.5-1.7-0.9-3.4-1.2-5.1
		C273.7,246.5,273.8,242,275.5,238.1z"/>
	<path class="st0" d="M278,263.6c0.2,0.6,0.3,1.2,0.5,1.8c0.2,0.8,0.4,1.5,0.5,2.3c-0.2-0.8-0.3-1.5-0.5-2.3
		C278.3,264.9,278.2,264.2,278,263.6z"/>
	<path class="st0" d="M377.9,232.4c-1.4-2-2.7-4.1-3.9-6.2C375.2,228.3,376.5,230.4,377.9,232.4z"/>
	<path class="st0" d="M321.7,245.9c-0.1-0.1-0.1-0.2-0.2-0.3C321.6,245.7,321.7,245.8,321.7,245.9z"/>
	<path class="st0" d="M318.6,171.8c0.4,0.2,0.7,0.5,1,0.7C319.3,172.2,319,172,318.6,171.8z"/>
	<path class="st0" d="M289.1,264.6C289.1,264.6,289.1,264.6,289.1,264.6C289.1,264.6,289.1,264.6,289.1,264.6z"/>
	<path class="st0" d="M278.5,234.7c0.1,0,0.1,0,0.2,0C278.6,234.7,278.5,234.7,278.5,234.7z"/>
	<path class="st0" d="M367.9,245.3c1.6-1.7,3.1-3.5,4.5-5.3C370.9,241.8,369.4,243.6,367.9,245.3z"/>
	<polygon class="st0" points="372.8,239.5 372.8,239.5 372.8,239.4 	"/>
	<path class="st0" d="M372.8,224c0.4,0.7,0.7,1.5,1.1,2.2C373.6,225.4,373.2,224.7,372.8,224z"/>
	<path class="st0" d="M325.3,252.1c0.8,1.4,1.5,2.8,2.3,4.2c2.6,4.8,5.2,9.7,6.7,14.9c-1.4-5.3-4.1-10.1-6.7-14.9
		C326.9,254.9,326.1,253.5,325.3,252.1z"/>
	<path class="st0" d="M314.2,151.4c2.8-0.3,5.5-1,8.3-1.7C319.8,150.4,317,151.1,314.2,151.4z"/>
	<path class="st0" d="M310.3,220.5c-0.8-1.4-1.5-2.9-2.1-4.4c-1-2.7-1.6-5.6-2.9-8.2c1.3,2.6,1.9,5.5,2.9,8.2
		C308.8,217.7,309.5,219.1,310.3,220.5z"/>
	<path class="st0" d="M334.1,147.7c13.8-0.3,26.6,8.4,36.9,17.8C360.7,156,347.9,147.3,334.1,147.7z"/>
	<path class="st0" d="M298,202.5c0.1,0,0.2,0,0.3,0C298.2,202.4,298.1,202.4,298,202.5c-0.8,0.2-1.1,1.2-1.2,2
		C296.9,203.6,297.2,202.7,298,202.5z"/>
	<path class="st0" d="M382.9,223.3c-1.2,2.5-2.5,4.9-3.9,7.3C380.4,228.2,381.7,225.8,382.9,223.3c6.4-13.8,7.6-30.7,0-43.8
		c-3.1-5.3-7.4-9.8-11.9-13.9c4.5,4.2,8.9,8.6,11.9,13.9C390.5,192.6,389.3,209.5,382.9,223.3z"/>
	<path class="st0" d="M360.9,212.8c-1.6-1.9-3.4-3.7-5.2-5.4C357.5,209.1,359.3,210.9,360.9,212.8z"/>
	<path class="st0" d="M328.9,148.2c-0.5,0.1-1,0.2-1.5,0.3C327.9,148.4,328.4,148.3,328.9,148.2z"/>
	<path class="st0" d="M299.9,217.2c-1.9-3.9-3.2-8-3.1-12.3C296.7,209.1,297.9,213.3,299.9,217.2z"/>
	<path class="st0" d="M372.8,239.4c-0.5-2.6-1.1-5.2-1.8-7.8C371.7,234.2,372.3,236.8,372.8,239.4z"/>
	<path class="st0" d="M326.9,187.1c-0.4-0.3-0.8-0.6-1.2-0.9C326.1,186.5,326.5,186.8,326.9,187.1z"/>
	<path class="st0" d="M323.6,184.7c-0.6-0.4-1.1-0.8-1.6-1.3C322.5,183.9,323,184.3,323.6,184.7z"/>
	<path class="st0" d="M352,204.2c-2.1-1.8-4.4-3.5-6.7-5.1C347.6,200.8,349.9,202.4,352,204.2z"/>
	<path class="st0" d="M301.4,203.5c0.8,0.5,1.5,1.2,2.2,1.9C302.9,204.6,302.2,204,301.4,203.5z"/>
	<path class="st0" d="M300.6,218.5L300.6,218.5L300.6,218.5z"/>
	<path class="st0" d="M303.6,158.9L303.6,158.9z"/>
	<path class="st0" d="M287.7,176.6c-0.2,0.2-0.4,0.5-0.5,0.7l0.3-0.8C287.6,176.6,287.6,176.6,287.7,176.6z"/>
	<path class="st0" d="M272.4,199.5c-0.1,0.3-0.3,0.5-0.4,0.8c-0.1-0.1-0.1-0.1-0.2-0.2L272.4,199.5z"/>
	<path class="st0" d="M366.5,220.7c-1-1.8-2.1-3.4-3.3-5C364.4,217.2,365.5,218.9,366.5,220.7z"/>
	<path class="st0" d="M371,231.6c-0.2-0.8-0.5-1.6-0.7-2.4C370.5,230,370.8,230.8,371,231.6z"/>
	<path class="st0" d="M300,202.8c0.5,0.2,1,0.4,1.4,0.7C300.9,203.2,300.5,202.9,300,202.8z"/>
	<path class="st0" d="M310.3,220.5c0.4,0.7,0.8,1.4,1.3,2.1C311.1,221.9,310.7,221.2,310.3,220.5z"/>
	<path class="st0" d="M303.6,205.4c0.4,0.5,0.8,1.1,1.2,1.6C304.4,206.4,304,205.9,303.6,205.4z"/>
	<path class="st0" d="M372.8,239.5c-0.2,0.2-0.3,0.4-0.5,0.6C372.5,239.8,372.7,239.6,372.8,239.5z"/>
	<path class="st0" d="M278,263.6c-0.7-2.6-1.6-5.2-2.3-7.8C276.4,258.5,277.2,261,278,263.6z"/>
	<path class="st0" d="M363.2,215.6c-0.7-1-1.5-1.9-2.3-2.8C361.7,213.7,362.5,214.7,363.2,215.6z"/>
	<path class="st0" d="M327.4,148.5c-0.7,0.2-1.4,0.3-2.2,0.5C325.9,148.9,326.6,148.7,327.4,148.5z"/>
	<path class="st0" d="M325.2,149c-0.9,0.2-1.8,0.5-2.7,0.7C323.4,149.5,324.3,149.3,325.2,149z"/>
	<path class="st0" d="M298.3,202.4c0.2,0,0.4,0,0.6,0C298.7,202.4,298.5,202.4,298.3,202.4z"/>
	<path class="st0" d="M321.6,245.6c-1.2-2-2.5-3.9-3.9-5.8C319,241.7,320.3,243.6,321.6,245.6z"/>
	<path class="st0" d="M278.6,234.7c0.1,0,0.1,0,0.2,0C278.8,234.7,278.7,234.7,278.6,234.7z"/>
	<path class="st0" d="M289.1,264.7c0.1,1.3,0.2,2.6,0.3,3.9C289.2,267.3,289.1,266,289.1,264.7z"/>
	<path class="st0" d="M275.5,238.1c0.3-0.7,0.7-1.4,1.1-2C276.2,236.7,275.9,237.4,275.5,238.1z"/>
	<path class="st0" d="M279.3,234.9c0.1,0.1,0.3,0.1,0.4,0.2C279.6,235,279.4,234.9,279.3,234.9z"/>
	<path class="st0" d="M288.6,255.8c0.2,2.9,0.3,5.9,0.4,8.8C288.9,261.6,288.9,258.7,288.6,255.8z"/>
	<path class="st0" d="M312.9,224.6c0.9,1.3,1.9,2.6,2.9,3.9C314.8,227.3,313.8,226,312.9,224.6z"/>
	<path class="st0" d="M367.9,245.3c-4.2,4.6-8.7,9-13.3,13.3c-2.6,2.4-5.3,4.8-8.1,7.1c2.8-2.3,5.5-4.7,8.1-7.1
		C359.1,254.3,363.7,250,367.9,245.3z"/>
	<path class="st0" d="M299.9,217.2c0.2,0.4,0.4,0.9,0.7,1.3C300.3,218,300.1,217.6,299.9,217.2z"/>
	<path class="st0" d="M314.1,172.4c0.5-1.1,1.9-1.5,3.1-1.3c0.5,0.1,1,0.4,1.5,0.6c-0.5-0.3-1-0.5-1.5-0.6
		C316,170.9,314.5,171.3,314.1,172.4c-0.4,1,0,2,0.6,3C314.1,174.5,313.7,173.4,314.1,172.4z"/>
	<path class="st0" d="M343.1,191.5c-7.6-6.2-15.3-12.4-22.9-18.5c-0.2-0.1-0.4-0.3-0.6-0.4c0.2,0.1,0.4,0.3,0.6,0.4
		C327.9,179.1,335.5,185.3,343.1,191.5z"/>
	<path class="st0" d="M300.6,218.5c1.1,1.9,2.3,3.8,3.6,5.5c3.7,4.9,8,9.1,11.9,13.9c-3.8-4.7-8.2-9-11.9-13.9
		C302.8,222.2,301.6,220.4,300.6,218.5z"/>
	<path class="st0" d="M321.7,245.9c1.3,2,2.4,4.1,3.6,6.2C324.2,250,323,247.9,321.7,245.9z"/>
	<path class="st0" d="M355.7,207.4c-1.2-1.1-2.4-2.2-3.7-3.2C353.3,205.2,354.5,206.3,355.7,207.4z"/>
	<path class="st0" d="M328.9,148.2c0.8-0.2,1.6-0.3,2.5-0.4c0.9-0.1,1.8-0.2,2.8-0.2c-0.9,0-1.8,0.1-2.8,0.2
		C330.5,147.9,329.7,148.1,328.9,148.2z"/>
	<path class="st0" d="M278.2,234.7c0.1,0,0.2,0,0.3,0C278.4,234.7,278.3,234.7,278.2,234.7c-0.7,0.2-1.2,0.7-1.5,1.3
		C277,235.5,277.5,234.9,278.2,234.7z"/>
	<path class="st0" d="M325.7,186.3c-0.7-0.5-1.4-1-2.1-1.5C324.3,185.2,325,185.8,325.7,186.3z"/>
	<path class="st0" d="M332.4,190.7c-1.8-1.2-3.7-2.3-5.5-3.6C328.7,188.3,330.6,189.5,332.4,190.7z"/>
	<path class="st0" d="M322,183.4c-1.2-1-2.4-2.1-3.5-3.2C319.6,181.4,320.7,182.4,322,183.4z"/>
	<path class="st0" d="M364.9,210.5c-1.4-1.5-2.9-3-4.4-4.3c-3.6-3.4-7.4-6.5-11.3-9.7c3.8,3.1,7.6,6.3,11.3,9.7
		C362,207.5,363.5,209,364.9,210.5z"/>
	<path class="st0" d="M374,226.1C374,226.1,374,226.1,374,226.1C374,226.1,374,226.1,374,226.1z"/>
	<path class="st0" d="M372.8,224c-1.4-2.9-2.6-5.9-4.3-8.6c-1.1-1.7-2.3-3.4-3.7-4.9c1.4,1.5,2.6,3.1,3.7,4.9
		C370.3,218.1,371.4,221.1,372.8,224z"/>
	<path class="st0" d="M317.5,179.2c-0.6-0.7-1.2-1.5-1.8-2.2C316.3,177.7,316.9,178.5,317.5,179.2z"/>
	<path class="st0" d="M377.9,232.4L377.9,232.4c0.4-0.6,0.8-1.2,1.1-1.8C378.6,231.1,378.3,231.8,377.9,232.4z"/>
	<path class="st0" d="M255.9,245l0.6-0.4c-0.2,0.6-0.4,1.3-0.7,1.9c-0.1-0.2-0.2-0.3-0.3-0.5C255.7,245.7,255.8,245.3,255.9,245z"/>
	<path class="st0" d="M256.6,244.5c1.4,2.4,2.6,4.9,3.7,7.4c1,2.5,1.9,5.1,2.7,7.8c0.7,2.6,1.3,5.3,1.6,8.1c0.4,2.7,0.4,5.5,0.3,8.2
		c-0.1-2.7-0.2-5.4-0.7-8.1c-0.5-2.7-1.1-5.3-2-7.9c-0.8-2.6-1.8-5.1-3-7.5c-1-2-2.1-4.1-3.2-6C256.1,245.8,256.3,245.2,256.6,244.5
		L256.6,244.5z"/>
	<path class="st0" d="M255.9,245l0.6-0.4l0.1-0.1c1.4,2.4,2.6,4.9,3.7,7.4c1,2.5,1.9,5.1,2.7,7.8c0.7,2.6,1.3,5.3,1.6,8.1
		c0.4,2.7,0.4,5.5,0.3,8.2c-0.1-2.7-0.2-5.4-0.7-8.1c-0.5-2.7-1.1-5.3-2-7.9c-0.8-2.6-1.8-5.1-3-7.5c-1-2-2.1-4.1-3.2-6
		c-0.1-0.2-0.2-0.3-0.3-0.5C255.7,245.7,255.8,245.3,255.9,245z"/>
	<path class="st0" d="M347.6,245c-0.1,0-0.1,0.1-0.2,0.1c-4.3,1.6-8.7-5.6-9.1-9c-0.2-1.6,0.8-3.6,2.5-3.6c1-0.1,2,0.6,2.7,1.3
		c2.4,2.2,5,6.7,4.6,10C348.1,244.3,348,244.7,347.6,245z"/>
	<path class="st0" d="M382.9,179.4c-3.1-5.3-7.4-9.8-12-13.9c-10.3-9.5-23.1-18.2-36.8-17.8c-0.9,0-1.8,0.1-2.8,0.2
		c-0.8,0.1-1.6,0.2-2.5,0.4c-0.5,0.1-1,0.2-1.5,0.3c-0.7,0.2-1.4,0.3-2.2,0.5c-0.9,0.2-1.8,0.5-2.7,0.7c-2.7,0.7-5.5,1.4-8.3,1.7
		c-2.6,2.1-5.2,4.3-7.6,6.6c6.3,0,12.5,1.2,18.5,3c6.9,2.1,13.5,5.3,19.6,9.1l4.5,3c1.5,1,2.9,2.2,4.3,3.3c2.9,2.1,5.5,4.7,8.1,7.1
		c1.4,1.2,2.5,2.6,3.8,3.9l3.7,3.9c2.3,2.8,4.5,5.6,6.8,8.4c-2.3-2.8-4.6-5.5-6.9-8.3l-3.7-3.9c-1.3-1.3-2.4-2.6-3.8-3.8
		c-2.7-2.4-5.3-4.8-8.2-6.9c-1.4-1.1-2.8-2.2-4.3-3.2l-4.5-2.9c-6.2-3.6-12.7-6.6-19.5-8.6c-6.5-1.8-13.3-2.9-19.9-2.5
		c-2.2,2.1-4.3,4.2-6.3,6.4c-3.4,3.6-6.6,7.3-9.7,11.1c7,3.5,13.6,7.6,20,12c6.7,4.7,13.2,9.9,19.2,15.5l2.3,2.1l2.2,2.2
		c1.4,1.5,2.9,2.9,4.3,4.4c2.7,3.1,5.6,6,8.1,9.3c5.3,6.3,9.8,13.2,14.1,20.1c-4.4-6.9-9.1-13.7-14.5-19.8c-2.6-3.2-5.5-6.1-8.2-9.1
		c-1.4-1.5-2.9-2.9-4.4-4.3l-2.2-2.1l-2.3-2c-6.1-5.5-12.6-10.5-19.3-15.1c-6.5-4.4-13.3-8.4-20.3-11.7c-1.5,1.9-3,3.8-4.4,5.8
		c-3.5,4.9-6.8,10-9.8,15.2c4.7,5,9.1,10.3,13.3,15.8c4.3,5.7,8.4,11.5,12.1,17.6c3.7,6.1,7,12.4,9.8,19c2.7,6.6,4.8,13.4,6.1,20.4
		c-1.4-7-3.7-13.7-6.5-20.2c-2.9-6.5-6.4-12.7-10.1-18.7c-3.8-6-8-11.7-12.4-17.3c-4.2-5.2-8.5-10.3-13.1-15
		c-0.6,1.1-1.3,2.3-1.9,3.4c-1.7,3.6-3.5,7.1-4.9,10.8l-1.1,2.8l-0.6,1.4l-0.4,1.4l-1.8,5.7c-1.8,6-3.5,12.1-5.5,18.1l0.1-0.1
		c1.4,2.4,2.6,4.9,3.7,7.4c1,2.5,1.9,5.1,2.7,7.8c0.7,2.6,1.3,5.3,1.6,8.1c0.4,2.7,0.4,5.5,0.3,8.2c-0.1-2.7-0.2-5.4-0.7-8.1
		c-0.5-2.7-1.1-5.3-2-7.9c-0.8-2.6-1.8-5.1-3-7.5c-1-2-2.1-4.1-3.2-6c-0.3,0.9-0.6,1.9-0.9,2.8c-2.6,7.5-5.6,14.9-8.8,22.2
		c-0.6,1.4-1.3,2.7-1.9,4.1c-2.1,4.3-4.3,8.6-6.7,12.7c-0.4,0.8-0.8,1.4-1.2,2c-0.9,1.5-1.4,2.2-1.4,2.2l0,0v0c0,0,0,0,0,0
		c2.1-1.2,4.2-2.2,6.5-3.1c2.2-0.9,4.6-1.7,6.9-2.3c1.6-0.4,3.2-0.8,4.8-1.1c6.5-1.3,13.2-1.8,19.7-1.9c2.2,0,4.4,0,6.7,0
		c0.2-1.1,0.4-2.2,0.5-3.3c0.1-0.7,0.1-1.5,0.2-2.2c0.1-3.6-0.2-7.3-1-10.8c-0.2-0.8-0.3-1.5-0.5-2.3c-0.2-0.6-0.3-1.2-0.5-1.8
		c-0.7-2.6-1.6-5.2-2.3-7.8c-0.5-1.7-0.9-3.4-1.2-5.1c-0.7-4.2-0.6-8.8,1.1-12.7c0.3-0.7,0.7-1.4,1.1-2c0.4-0.6,0.9-1.2,1.5-1.3
		c0.1,0,0.2,0,0.3,0c0.1,0,0.1,0,0.2,0c0.1,0,0.1,0,0.2,0c0.2,0,0.3,0.1,0.5,0.1c0.1,0.1,0.3,0.1,0.4,0.2c0.3,0.2,0.6,0.4,0.8,0.6
		c4.5,3.8,6.7,9.8,7.6,15.7c0.2,1.5,0.4,3,0.5,4.4c0.2,2.9,0.3,5.9,0.4,8.8c0,0,0,0.1,0,0.1c0.1,1.3,0.2,2.6,0.3,3.9
		c0,0.2,0,0.4,0.1,0.6c0.3,2.6,0.7,5.1,1.2,7.6c0,0,0,0,0,0c0.6,2.5,1.3,5,2.2,7.4c0.7,0,1.3,0,2,0c9.2-0.2,18.4-1,27-3.9
		c0.6-0.2,1.2-0.4,1.9-0.7c1-0.4,2-0.8,2.9-1.2c2.9-1.3,5.6-2.7,8.3-4.4c-0.2-0.9-0.4-1.9-0.6-2.8c-1.4-5.3-4.1-10.1-6.7-14.9
		c-0.7-1.4-1.5-2.8-2.3-4.2c-1.2-2.1-2.3-4.2-3.6-6.2c-0.1-0.1-0.1-0.2-0.2-0.3c-1.2-2-2.5-3.9-3.9-5.8c-0.5-0.7-1.1-1.4-1.6-2.1
		c-3.8-4.7-8.2-9-11.9-13.9c-1.3-1.7-2.5-3.6-3.6-5.5l0,0c-0.2-0.4-0.5-0.9-0.7-1.3c-1.9-3.9-3.2-8-3.1-12.3c0-0.1,0-0.2,0-0.4
		c0.1-0.9,0.4-1.8,1.2-2c0.1,0,0.2,0,0.3,0c0.2,0,0.4,0,0.6,0c0.4,0.1,0.7,0.2,1,0.3c0.5,0.2,1,0.4,1.4,0.7c0.8,0.5,1.5,1.2,2.2,1.9
		c0.4,0.5,0.8,1.1,1.2,1.6c0.2,0.3,0.4,0.6,0.5,1c1.3,2.6,1.9,5.5,2.9,8.2c0.6,1.5,1.3,3,2.1,4.4c0.4,0.7,0.8,1.4,1.3,2.1
		c0.4,0.7,0.9,1.4,1.4,2c0.9,1.3,1.9,2.6,2.9,3.9c1,1.3,2,2.6,2.9,3.9c8.8,11.9,15.3,25.4,19.1,39.7c3-2,5.8-4.2,8.6-6.5
		c2.8-2.3,5.5-4.7,8.1-7.1c4.6-4.2,9.1-8.6,13.3-13.3c1.6-1.7,3.1-3.5,4.5-5.3c0.2-0.2,0.3-0.4,0.5-0.6l0,0
		c-0.5-2.6-1.1-5.2-1.8-7.8c-0.2-0.8-0.5-1.6-0.7-2.4c-0.7-2-1.4-4-2.4-5.9c-0.4-0.9-0.9-1.8-1.4-2.7c-1-1.8-2.1-3.4-3.3-5
		c-0.7-1-1.5-1.9-2.3-2.8c-1.6-1.9-3.4-3.7-5.2-5.4c-1.2-1.1-2.4-2.2-3.7-3.2c-2.1-1.8-4.4-3.5-6.7-5.1c-4.2-3-8.6-5.8-12.9-8.5
		c-1.8-1.2-3.7-2.3-5.5-3.6c-0.4-0.3-0.8-0.6-1.2-0.9c-0.7-0.5-1.4-1-2.1-1.5c-0.5-0.4-1.1-0.8-1.6-1.3c-1.2-1-2.4-2.1-3.5-3.2
		c-0.3-0.3-0.7-0.7-1-1.1c-0.6-0.7-1.2-1.5-1.8-2.2c-0.3-0.4-0.6-0.8-0.8-1.2c-0.1-0.1-0.2-0.3-0.2-0.4c-0.5-0.9-1-2-0.6-3
		c0.5-1.1,1.9-1.5,3.1-1.3c0.5,0.1,1,0.4,1.5,0.6c0.4,0.2,0.7,0.5,1,0.7c0.2,0.1,0.4,0.3,0.6,0.4c7.6,6.2,15.3,12.4,22.9,18.5
		c0.8,0.6,1.5,1.2,2.3,1.9c1.3,1,2.6,2.1,3.8,3.1c3.8,3.1,7.6,6.3,11.3,9.7c1.5,1.4,3,2.8,4.4,4.3s2.6,3.1,3.7,4.9
		c1.7,2.7,2.8,5.7,4.3,8.6c0.4,0.7,0.7,1.5,1.1,2.2c0,0,0,0,0,0c1.2,2.1,2.5,4.2,3.9,6.2c0.4-0.6,0.8-1.2,1.1-1.8
		c1.4-2.3,2.7-4.8,3.9-7.3C389.3,209.5,390.5,192.6,382.9,179.4z M348.1,243.8c-0.1,0.4-0.2,0.9-0.6,1.2c-0.1,0-0.1,0.1-0.2,0.1
		c-4.3,1.6-8.7-5.6-9.1-9c-0.2-1.6,0.8-3.6,2.5-3.6c1-0.1,2,0.6,2.7,1.3C345.9,236,348.6,240.5,348.1,243.8z"/>
	<path class="st0" d="M304,156.7c2.5-2.5,5.1-4.9,7.9-7.2c0.8-18.8-11.9-37.1-25.3-42.8c-10.2-4.3-22-3.5-32.3,0.4
		c-10.3,4-19.2,10.9-27,18.6c-1.1,1.1-2.1,2.1-3.1,3.2c0.9,0.2,1.7,0.3,2.6,0.4c6.8,0.6,13.7-0.9,20.4-0.2
		c8.8,0.9,16.7,5.4,24.3,9.8c4.2,2.4,8.4,4.9,11.5,8.5c2.1,2.4,3.3,6.5,0.8,8.4c-1.3,1-3.3,0.8-4.7,0.1c-1.5-0.7-2.6-2-3.8-3.2
		c-9.6-9.8-22.3-17.7-36-17.6c-5.4,0.1-10.7,1.4-16,2.7c-2.8,0.7-5.6,1.4-8.4,2.1c-6.2,8.3-11.3,17.5-14.6,27.3
		c-0.5,1.4-0.9,2.8-1.3,4.2c0.2,0.1,0.4,0.2,0.6,0.2c4.9,1.6,10.2,1.4,15.3,1.2c11-0.5,22-0.9,33-1.4c5.9-0.2,12-0.4,17.4,1.8
		c2.2,0.9,4.6,3.2,3.5,5.4c-0.5,0.9-1.5,1.4-2.5,1.7c-5.4,1.9-11.4,0.5-17-0.8c-10.9-2.4-22-4.2-33.2-3.2
		c-6.7,0.6-13.5,2.3-19.5,5.3c-1.8,11.6-1.1,23.5,2.5,34.6c1.2,3.6,2.6,7,4.3,10.3c2.5-0.9,4.8-2.1,6.8-3.8
		c3.9-3.2,6.7-7.4,9.9-11.3c3.6-4.4,7.8-8.3,12.5-11.7c3.2-2.3,6.8-4.4,10.7-4.8c3.9-0.4,8.3,1.4,10,5c0.2,0.5,0.4,1,0.3,1.5
		c-0.1,0.6-0.6,1.1-1,1.5c-4.2,3.9-9.3,6.8-14.7,8.6c-4,1.3-8.3,2.1-11.8,4.4c-3.5,2.4-5.8,6.1-7.6,9.9c-2.6,5.6-4.2,11.6-4.9,17.7
		c3.9,6,7.9,11.9,11.5,18.1c3,5.3,5.7,11,7.5,16.9c1.3,4.5,2.1,9.1,2.4,13.8c0,0,0,0,0,0v0c4.2-6.7,7.7-13.9,10.9-21.2
		c3.1-7.3,5.9-14.8,8.4-22.3c0.4-1.2,0.8-2.3,1.1-3.5c0,0,0,0,0-0.1l0.1-0.1c2-6.4,3.8-12.8,5.5-19.3l1.7-5.8l0.1-0.5
		c-3.4,1.5-6.8,3.2-9.9,5.3c-1.9,1.1-3.5,2.5-5.3,3.7c-1.7,1.4-3.4,2.7-4.9,4.2c-3.2,2.9-6.2,6.1-8.9,9.5c-2.7,3.4-5.2,7-7.3,10.8
		c2-3.9,4.4-7.5,7-11c2.6-3.5,5.5-6.8,8.7-9.8c1.5-1.6,3.2-3,4.9-4.4c1.7-1.3,3.4-2.8,5.3-3.9c3.5-2.5,7.4-4.5,11.4-6.4l0.1-0.2
		l1.1-2.8c1.3-3.8,3.1-7.4,4.7-11c1.6-3.2,3.3-6.3,5.2-9.4l-7.6-2.5c-2.9-0.7-5.9-1.5-8.8-2.2l-4.5-0.8l-2.2-0.4l-2.3-0.2l-4.5-0.4
		l-4.6-0.1c-6.1,0-12.2,0.7-18,2.3c-2.9,0.9-5.8,1.9-8.5,3.2c-2.7,1.3-5.4,2.9-7.7,4.9c2.2-2.1,4.9-3.7,7.6-5.1
		c2.7-1.5,5.6-2.5,8.5-3.5c5.9-1.8,12-2.6,18.1-2.8l4.6,0l4.6,0.3l2.3,0.2l2.3,0.3l4.6,0.7c3,0.6,6,1.3,9,2l8.1,2.4
		c2-3.3,4.1-6.5,6.2-9.7c3.2-4.5,6.5-8.8,10.1-13l-7-3.9l-8.4-4.2c-2.9-1.2-5.7-2.6-8.6-3.7c-2.9-1.1-5.8-2.3-8.8-3.1
		c-3-1-6-1.7-9-2.5l-4.6-0.9c-1.5-0.3-3.1-0.4-4.6-0.6c-1.6-0.2-3.1-0.2-4.7-0.4c-1.6,0-3.1-0.1-4.7,0c-3.1,0.1-6.3,0.5-9.3,1.4
		c3-1,6.1-1.5,9.2-1.6c1.6-0.1,3.1-0.1,4.7-0.1c1.6,0.1,3.1,0.1,4.7,0.3c1.6,0.2,3.1,0.3,4.7,0.5l4.7,0.8c3.1,0.7,6.2,1.3,9.2,2.3
		c3,0.8,6,1.9,9,2.9c3,1.1,5.8,2.3,8.8,3.5l8.5,4l7.4,3.9c1.3-1.5,2.6-2.9,3.9-4.4c2-2.1,4-4.2,6-6.3c-1.2-5.8-3.1-11.4-6-16.6
		c-3-5.5-7.3-10.3-12.4-13.9c-5.2-3.6-11.1-5.9-17.3-7.2c-6.2-1.2-12.6-1.4-18.9-0.5c6.2-1,12.7-1,19,0.1c6.3,1.1,12.4,3.3,17.7,6.9
		c5.3,3.5,9.8,8.4,13,13.9C300.6,145.7,302.6,151.1,304,156.7z M205.3,208.8c1.1-2.9,4.1-4.8,6.8-6.1c0.2-0.1,0.3-0.1,0.5-0.1
		c0.1,0,0.2,0.1,0.2,0.2c0.6,1.1,0.1,2.5-0.5,3.5c0,0,0,0.1-0.1,0.1c-1,1.3-4.7,5.6-6.6,4.4c-0.3-0.2-0.5-0.6-0.5-0.9
		C205.1,209.5,205.2,209.1,205.3,208.8z"/>
</g>
</svg>
