<?xml version="1.0" encoding="utf-8"?>
<!-- Generator: Adobe Illustrator 23.0.1, SVG Export Plug-In . SVG Version: 6.00 Build 0)  -->
<svg version="1.1" id="Layer_1" xmlns="http://www.w3.org/2000/svg" xmlns:xlink="http://www.w3.org/1999/xlink" x="0px" y="0px"
	 width="546.9px" height="593.8px" viewBox="0 0 546.9 593.8" style="enable-background:new 0 0 546.9 593.8;" xml:space="preserve"
	>
<style type="text/css">
	.st0{fill:#5F7A5A;enable-background:new    ;}
</style>
<path class="st0" d="M332.8,367.2L332.8,367.2L332.8,367.2c0.2,0.4,0.4,0.8,0.6,1.2c0.6,1,1.1,2,1.7,3.1c0.6,1.2,1.2,2.3,1.8,3.5
	c0.8,1.5,1.5,3,2.2,4.5c1,2.1,1.9,4.2,2.8,6.3c0.5,1.3,1.1,2.6,1.6,3.9c1.7,0.7,3.5,1.3,5.3,1.6c5.4,0.9,10.8-0.2,16.3-0.7
	c8.1-0.8,16.2-0.3,24.3,0.2c2.2,0.1,4.5,0.3,6.6,0.9c3.1,0.9,5.9,2.8,7.9,5.4c-1.1,1.6-3.2,2-5.2,2c-6.6,0.1-13-2-19.6-2.5
	c-3.7-0.3-7.5,0-11.2-0.5c-2.9-0.4-5.7-1.2-8.5-1.6c-3.2-0.4-6.4-0.3-9.6-0.7c-1.8-0.3-3.7-0.7-5.4-1.3c3.9,10.7,6.1,21.8,7.5,33.1
	c4.5,1.4,9.2,2.1,14,1.8c4.1-0.3,8.1-1.2,12.1-1c2.5,0.2,4.9,0.7,7.4,0.9c5,0.4,10.1-1,14.6-3.1c4.5-2.2,8.6-5.2,12.5-8.5
	c2.3-1.9,4.6-3.9,7.5-4.5c1.3-0.3,2.8-0.2,3.5,0.9c1.1,1.4-0.2,3.4-1.4,4.7c-6.1,6.3-14.1,10.8-22.6,12.7
	c-6.3,1.4-12.9,1.5-19.4,1.5c-2.4,0-4.8,0-7.2-0.3c-3.1-0.4-6.2-1.2-9.4-1.5c-3.1-0.3-6.2-0.1-9.3,0.2c-0.6,0-1.3,0.1-2,0.2
	c0.1,0.5,0.1,1.1,0.2,1.6c3.2,8.9,6.8,17.6,14.4,22.8c3.8,2.6,8.2,4.1,12.6,5.2c9.4,2.5,19.3,3.9,28.9,2.5c9.6-1.5,19.1-6,25.1-13.6
	c3-3.8,5.1-8.1,6.8-12.6c2.5-6.4,4.3-17.3,5.2-24.7l-0.7-0.5l-2.2-2.7c-2.3,6.3-5.6,12.1-9.8,17.2c-4.4,5.6-10.1,10.3-16.3,13.7
	c-0.8,0.5-1.6,0.8-2.4,1.2c-0.8,0.4-1.6,0.8-2.5,1.1c-1.7,0.6-3.4,1.2-5.1,1.6c-3.4,0.9-7,1.4-10.6,1.5c-7.1,0.2-14.3-1-20.9-3.6
	c6.6,2.5,13.8,3.5,20.8,3.2c3.5-0.2,7-0.7,10.4-1.7c1.7-0.4,3.3-1.1,5-1.7c0.8-0.3,1.6-0.7,2.4-1.1s1.6-0.7,2.3-1.2
	c6.1-3.5,11.5-8.2,15.7-13.8c4-5.2,7.3-11.2,9.3-17.4l-4.8-3.1c-3.1-2.1-6.4-4-9.4-6.2c-5.1,3.2-10.5,5.8-16.2,7.7
	c-6,1.9-12.2,3.2-18.5,4c-6.3,0.7-12.5,1-18.8,0.8s-12.5-0.7-18.7-1.7c6.2,0.9,12.5,1.2,18.7,1.3c6.3,0,12.5-0.4,18.7-1.2
	c6.2-0.9,12.3-2.3,18.2-4.3c5.4-1.9,10.4-4.5,15.1-7.6c-5.8-4.2-11.7-8.2-17.3-12.7l-4.5-3.5l-2.3-1.8l-2.2-1.9l-7.5-6.4
	c-4.6,1.4-9.3,2.5-14.2,2.9l-1.9,0.2l-1.9,0.1c-1.2,0-2.5,0.1-3.7,0.1c-2.5-0.1-5-0.2-7.4-0.5c-4.9-0.5-9.8-1.5-14.5-2.9
	s-9.4-3.2-13.7-5.4c4.4,2.1,9.1,3.7,13.9,5c4.8,1.2,9.6,2.1,14.5,2.5c2.4,0.3,4.9,0.2,7.3,0.3c1.2,0,2.4-0.1,3.7-0.2l1.8-0.1
	l1.8-0.2c4.4-0.4,8.6-1.6,12.8-2.9c-8.4-7.6-16.4-15.5-23.9-23.9c-3.1-1.1-6.3-2.2-9.3-3.5c-3.1-1.3-6.2-2.7-9.3-4.2
	c-3-1.5-6-3.2-8.9-5s-5.7-3.7-8.2-6c2.6,2.2,5.5,4,8.3,5.8c2.9,1.7,5.9,3.3,8.9,4.8c3.1,1.5,6.2,2.8,9.3,4c2.6,1,5.3,2,8,2.8
	c-2.2-2.5-4.4-5.1-6.6-7.8c-8.4-10.5-16.2-21.6-21.8-33.8c-1.6-3.3-2.2-5.2-2.2-5.2c-1.3,8.1-9,15-10.4,23.5c-1,6,1.4,12.2,1,18.3
	c1,1.2,2,2.5,3.1,3.7c3.8,4.2,8.4,8,13.9,9.2c2.5,0.5,5,0.5,7.5,1c0.7,0.1,1.4,0.3,1.9,0.8c0.9,0.9,0.8,2.5,0,3.4
	c-0.8,1-2.1,1.4-3.4,1.5c-2.4,0.2-4.8-0.6-7-1.6c-5-2.1-9.6-5-13.8-8.6c-1.2-1-2.3-2.1-3.5-3c-0.3,1.2-0.7,2.4-1.1,3.5
	c0.7,1.2,1.4,2.4,2.1,3.6s1.4,2.4,2.1,3.6c0.5,0.9,1,1.8,1.5,2.6c-0.5-0.9-1-1.7-1.5-2.6c0.5,0.9,1,1.8,1.5,2.6
	C328,358.5,332.8,367.1,332.8,367.2 M332.8,367.2L332.8,367.2 M333,312.9c2-0.1,4.1,1.7,3.7,3.9c-0.3,1.4-1.9,2.8-3.4,2.1
	c-0.5-0.2-0.9-0.6-1.1-1.1c-0.5-0.9-0.6-2.1-0.6-3.2C331.6,313.9,332.1,313,333,312.9z M335.9,371.2c0.6,1.2,1.2,2.3,1.8,3.5
	C337.1,373.5,336.5,372.3,335.9,371.2z M337.7,374.7c0.8,1.5,1.5,3,2.2,4.5C339.2,377.7,338.5,376.2,337.7,374.7z M340,379.2
	c1,2.1,1.9,4.2,2.8,6.3C341.9,383.4,340.9,381.3,340,379.2z M353.8,384c-0.7,0.5-1.7,0.5-2.6,0.4c-1.7-0.3-3.3-1-4.7-1.8
	c-0.3-0.2-0.7-0.4-1-0.6c-0.5-0.4-0.9-0.9-0.7-1.6c0.1-0.6,0.5-1.1,1.1-1.5c0.7-0.5,1.6-0.7,2.5-0.7c1.6-0.1,3.3,0.2,4.6,1.1
	c0.8,0.5,1.5,1.3,1.7,2.2C354.9,382.3,354.6,383.4,353.8,384z"/>
<path class="st0" d="M493.4,365.7c-0.9-3.7-2.9-7.2-4.9-10.6c-0.2-0.3-0.4-0.6-0.6-0.9c-5.6-8.9-11.9-17.4-19.5-24.6
	c-1.3-1.2-2.6-2.4-3.9-3.5s-2.7-2.2-4.1-3.3c-1-0.8-2-1.5-3.1-2.3c-0.8-0.6-1.6-1.2-2.5-1.8c-0.7-0.5-1.4-1-2.2-1.5
	c-0.3-0.2-0.6-0.4-0.8-0.6c0,1-0.1,2,0,3s0.2,2,0.4,2.9c0.4,1.8,1.1,3.6,1.8,5.3c0.2,0.6,0.5,1.2,0.7,1.7
	c5.9,14.6,6.3,31.3,1.4,46.3c-0.7,2.1-1.5,4.2-2.4,6.3c-1,2.2-2.2,4.5-4.4,5.5c-0.1,0-0.2,0.1-0.3,0.1c-0.4,0.1-0.8,0.2-1.1,0.2
	c-0.2,0-0.4-0.1-0.5-0.2c-0.1,0-0.2-0.1-0.2-0.2c-0.6-0.5-0.5-1.4-0.4-2.1c0.2-1.2,0.5-2.4,0.8-3.6s0.7-2.4,1.2-3.5
	c0.4-1.2,0.9-2.3,1.3-3.5c0.5-1.2,0.9-2.3,1.3-3.5c1.6-4.5,2.8-9.2,3.4-14c0.2-1.2,0.3-2.5,0.4-3.7c0.9-10-0.5-20.2-4.3-29.5
	c-0.3-0.7-0.6-1.3-0.9-2s-0.6-1.3-0.9-2c-0.6-1.3-1.2-2.6-1.9-4c-0.6-1.3-1.2-2.6-1.7-3.8c-0.7-0.5-1.4-0.9-2.1-1.4
	c-0.9-0.6-1.8-1.2-2.6-1.7c-3.9-2.5-7.9-5-12.1-7c-2-0.9-4-1.7-6-2.4c-0.6,0.3-1.1,0.6-1.7,0.9c0,0.2-0.1,0.4-0.1,0.6
	c-0.3,2.5-0.2,5,0.2,7.5c0.1,0.9,0.3,1.8,0.4,2.7c0.1,0.8,0.3,1.6,0.4,2.4c0.2,1.3,0.4,2.5,0.6,3.8s0.3,2.5,0.4,3.8
	c0,0.8,0.1,1.7,0.1,2.5c0,1.7-0.1,3.4-0.3,5c-0.1,0.8-0.1,1.7-0.2,2.5c-0.3,3.5-0.7,6.9-1,10.4c-0.2,2-0.4,4.1-0.2,6.2
	c0.1,1,0.3,2,0.6,3c0.5,1.9,1.4,3.8,2.1,5.7c0.4,0.9,0.8,1.9,1.1,2.9c0.6,1.9,1.1,4,1,6.1c0,0.5,0,1-0.1,1.5
	c-0.2,1.5-0.7,2.9-1.7,4.1c-0.5,0.7-1.2,1.3-2,1.6c-0.2,0.1-0.5,0.1-0.7,0.1c-1.6,0.1-2.7-1.2-3.5-2.6c-0.1-0.2-0.2-0.4-0.3-0.6
	c-0.3-0.6-0.6-1.2-0.9-1.9c-0.3-0.7-0.5-1.3-0.8-2c-0.1-0.2-0.2-0.5-0.2-0.7c-2-6.3-2.1-13.2-1.5-19.8c0.5-5.2,1.4-10.3,2.3-15.5
	c0.5-3.1,1-6.2,1.3-9.3c0.4-4.3,0.5-8.7-0.1-13c-0.1-0.5-0.1-1-0.2-1.5c-0.2-1.2-0.5-2.5-0.8-3.7c-10.2,4.1-21.7,4.9-32.7,3.1
	c-0.1,0.5-0.3,1.1-0.4,1.6c-0.3,1.3-0.6,2.6-0.9,3.9c-1,4.7-2,9.6-0.8,14.2c0.3,1.2,0.8,2.3,1.3,3.4c0.2,0.6,0.5,1.1,0.8,1.7
	c0.5,1,1,2,1.4,3c0.1,0.2,0.2,0.4,0.2,0.5c0.2,0.4,0.3,0.8,0.4,1.2c0.4,1.2,0.7,2.4,0.7,3.7c0,0.1,0,0.1,0,0.2c0,0.4,0,0.8-0.3,1.2
	c-0.2,0.3-0.5,0.5-0.9,0.6s-0.8,0.1-1.1,0c-0.4-0.1-0.7-0.3-1-0.5l0,0c-0.3-0.2-0.6-0.5-0.8-0.8c-0.9-1-1.5-2.1-2-3.3
	c-0.9-2-1.4-4.2-1.7-6.4c-0.5-2.8-0.8-5.6-1-8.4c-0.1-2-0.2-4-0.3-6c-0.1-3.8-0.1-7.6-0.3-11.3c-9.4-2.5-18.3-6.6-26.6-11.8
	c-5.4,1.5-10.8,2.9-16.3,3.9l0,0l0,0l0,0c5.9,14.2,15,26.7,24.7,38.5c1.1,1.4,2.3,2.7,3.5,4.1c-0.1-6.2-0.4-12.5-1-18.7
	c-0.6-6.7-1.6-13.3-3-19.8c1.6,6.5,2.7,13.1,3.5,19.8c0.7,6.5,1.2,13.1,1.5,19.7c8.7,9.8,18.1,18.8,28,27.4l6.2,5.1
	c1.4-4.7,2.4-9.5,3.3-14.4c0.9-5.3,1.7-10.7,2.1-16.1s0.7-10.9,0.6-16.3c0-5.4-0.4-10.9-0.9-16.3c0.6,5.4,1.2,10.8,1.4,16.3
	c0.2,5.5,0.1,10.9-0.2,16.4c-0.3,5.5-0.9,10.9-1.7,16.3c-0.8,5.2-1.8,10.3-3.2,15.4l1.2,1l2.2,1.8l2.3,1.7l4.6,3.4
	c5.7,4.5,11.8,8.5,17.8,12.6c3.1-5.5,5.4-11.4,7.3-17.4c2-6.5,3.3-13.2,3.8-20l0.2-2.5l0.1-2.6c0-1.7,0.2-3.4,0.1-5.1l-0.3-5.1
	l-0.1-1.3l-0.2-1.3l-0.3-2.5l-0.3-2.5l-0.2-1.3l-0.3-1.3l-1.1-5c-0.3-1.7-0.9-3.3-1.4-4.9l-1.5-4.9l1.6,4.9c0.5,1.6,1.1,3.2,1.5,4.9
	l1.2,5l0.3,1.3l0.2,1.3l0.4,2.5l0.4,2.5l0.2,1.3l0.1,1.3l0.4,5.1c0.1,1.7,0,3.4,0.1,5.1v2.6l-0.2,2.6c-0.4,6.9-1.6,13.7-3.4,20.3
	c-1.7,6.2-4,12.3-7.1,18c3,2.1,6.1,3.9,9.2,5.8l5.2,3.3c5.4-2.4,10.7-5.3,15.8-8.5c5.3-3.5,10.5-7.4,14.5-12.4
	c1.9-2.5,3.3-5.4,4-8.5s0.9-6.3,0.7-9.5c-0.3-6.4-1.7-12.8-3.9-18.8c2.3,6,3.9,12.3,4.3,18.8c0.2,3.2,0.1,6.5-0.5,9.7
	c-0.7,3.2-2,6.3-4,8.9c-4,5.2-9.1,9.3-14.4,13c-4.7,3.2-9.7,6-14.8,8.5l2.8,1.7l2.3,1.3c2,0,4-0.1,6.1-0.2h0.1
	c8.3-0.5,16.6-2,22.9-7c0.6-0.4,1.1-0.9,1.7-1.4c4.9-4.6,7.6-10.9,10.1-17c1.3-3.1,2.6-6.4,3.1-9.7c0.2-1.1,0.3-2.2,0.2-3.4
	C493.9,368.5,493.7,367.1,493.4,365.7z M471.6,373.3c-0.9,1-2.1,1.6-3.4,2c-0.6,0.2-1.3,0.3-2,0.1c-1.2-0.3-1.9-1.5-2-2.7
	s0.3-2.4,0.8-3.4c0.9-1.9,6.1-9.1,7.3-4C472.9,368,473.4,371.2,471.6,373.3z"/>
</svg>
