<?xml version="1.0" encoding="utf-8"?>
<!-- Generator: Adobe Illustrator 23.0.1, SVG Export Plug-In . SVG Version: 6.00 Build 0)  -->
<svg version="1.1" id="Layer_1" xmlns="http://www.w3.org/2000/svg" xmlns:xlink="http://www.w3.org/1999/xlink" x="0px" y="0px"
	 width="546.9px" height="593.8px" viewBox="0 0 546.9 593.8" style="enable-background:new 0 0 546.9 593.8;" xml:space="preserve"
	>
<style type="text/css">
	.st0{fill:#5F7A5A;enable-background:new    ;}
</style>
<path class="st0" d="M535.1,122c-2-3.2-4.2-6.4-6.6-9.4c-0.6-0.8-1.2-1.6-1.9-2.3c-1.6,3-3.1,6.1-4.3,9.2l0,0
	c-0.4,1.1-0.8,2.1-1.2,3.2c-1.5,4.2-2.6,8.6-4.4,12.6c-1.2,2.6-2.6,5-4.3,7.4c-1.6,2.3-3.4,4.6-5.3,6.8c-4.4,5.3-9.1,10.3-13.9,15.3
	c-1.6,1.7-3.2,3.3-4.8,5c-0.9,1-1.9,2-2.8,3c-9.5,9.9-18.9,19.7-28.4,29.6c-0.2,0.2-0.5,0.5-0.7,0.7c-0.4,0.4-0.9,0.8-1.3,1.2
	c-0.6,0.5-1.2,0.9-1.9,1.1c-1.6,0.6-3.6,0.2-4.5-1.2c-0.7-1.3-0.3-2.8,0.3-4.2c0.1-0.2,0.2-0.4,0.3-0.6c0.3-0.6,0.6-1.2,0.9-1.8
	c0.7-1.2,1.4-2.3,2.1-3.4c0.4-0.5,0.8-1.1,1.2-1.6c1.3-1.8,2.8-3.4,4.3-5c0.7-0.7,1.3-1.4,2-2.1c0.9-0.8,1.7-1.7,2.6-2.5
	c0.5-0.5,1-0.9,1.6-1.4c2.3-2,4.7-4,7-5.9c5.5-4.5,11.1-9.1,16.4-13.9c2.9-2.6,5.7-5.4,8.3-8.2c1.6-1.6,3.1-3.3,4.5-5
	c2.3-2.7,4.4-5.5,6.3-8.4c0.9-1.4,1.8-2.8,2.7-4.3c1.4-2.4,2.6-4.9,3.7-7.5c0.5-1.3,1-2.6,1.5-4c0.9-2.8,1.7-5.6,2.2-8.5
	c0.2-1.1,0.4-2.3,0.6-3.5c0.6-3.7,0.9-7.4,1.1-11.1l0,0c-0.2-0.2-0.5-0.5-0.7-0.7c-2.3-2.2-4.7-4.4-7.1-6.5
	c-6.6-5.7-13.6-11-20.7-16c-4.1-2.9-8.2-5.7-12.5-8.4c-4.2-2.7-8.6-5.2-13-7.5c-2.8,20.4-9.4,40.2-19.5,58.1c-1.1,2-2.3,3.9-3.4,5.9
	s-2.3,3.9-3.3,5.9c-0.5,1-1,2-1.5,3s-0.9,2-1.4,3.1c-0.9,2.1-1.6,4.2-2.1,6.4c-0.9,3.9-1.3,8-2.6,11.8c-0.2,0.5-0.4,0.9-0.6,1.4
	c-0.4,0.9-0.8,1.7-1.3,2.5c-0.7,1.1-1.6,2.2-2.7,3c-0.6,0.5-1.2,0.9-1.8,1.2c-0.4,0.2-0.9,0.4-1.4,0.6c-0.3,0.1-0.6,0.1-0.9,0.1
	c-0.1,0-0.3,0-0.4,0c-1.1-0.2-1.7-1.4-2-2.6c0-0.2-0.1-0.3-0.1-0.5c-0.9-5.9,0.1-11.8,2.1-17.5c0.2-0.6,0.5-1.3,0.7-1.9l0,0
	c1.1-2.8,2.5-5.6,4-8.2c4.2-7.3,9.5-14,14-21.2c0.6-1,1.3-2.1,1.9-3.1c1.6-2.8,3.1-5.7,4.4-8.6c0.1-0.1,0.1-0.3,0.2-0.5
	c1.4-3,2.7-6.1,3.9-9.2c0.8-2,1.6-4.1,2.4-6.1c2.8-7.1,5.5-14.2,6.6-21.8c0.2-1.3,0.3-2.7,0.4-4c-4-1.8-8-3.4-12.2-4.6
	c-1.4-0.4-2.8-0.8-4.2-1.1c-0.9-0.2-1.8-0.4-2.7-0.6c-12.5-2.5-25.2-2-38-0.7c-0.9,0.1-1.8,0.2-2.7,0.3c-0.8,3.5-1.4,7-1.7,10.6l0,0
	c-0.4,3.6-0.5,7.1-0.4,10.7c0,0.3,0,0.5,0,0.8c0.1,1.8,0.2,3.6,0.3,5.4v0.1c0.3,4.1,0.7,8.2,0.9,12.3c0.1,2.1,0.1,4.1,0.1,6.2
	c-0.2,8.3-2.3,16.9-7.9,23c-0.3,0.3-0.6,0.7-1,1c-0.2,0.1-0.4,0.3-0.6,0.4s-0.4,0.2-0.6,0.3c-0.1,0-0.2,0-0.2,0.1
	c-0.1,0-0.1,0-0.2,0s-0.3,0-0.4,0c-1-0.1-1.7-0.8-2.4-1.6c-0.7-0.8-1.3-1.7-1.8-2.6c-3.1-5.1-4-11.4-3.7-17.4
	c0.1-2.4,0.4-4.8,0.8-7.2c0.6-3.7,1.3-7.4,1.9-11.1c0.1-0.9,0.3-1.8,0.4-2.6c0.1-1.1,0.3-2.2,0.3-3.2c0.4-5,0.3-10.2-0.6-15.1
	c-0.2-1-0.4-2-0.6-3c-0.3-1.5-0.7-3-1.2-4.5c-3.1,0.4-6.1,0.8-9.2,1.1c-9,1-18.4,1.5-27.5,0.8c-2.3-0.2-4.6-0.4-6.8-0.7
	c-3.4-0.5-6.7-1.1-10-2s-6.4-1.9-9.5-3.2l0,0l0,0l0,0c0,0,0.9,1,2.4,2.8c0.6,0.7,1.2,1.6,2,2.5c4.1,5.3,7.9,10.8,11.5,16.4
	c1.1,1.8,2.2,3.5,3.3,5.3c5.8,9.5,11.1,19.2,16,29.1c0.6,1.2,1.2,2.4,1.8,3.7c1.3-2.8,2.5-5.8,3.5-8.8c1.2-3.6,2.1-7.2,2.9-10.9
	c0.8-3.7,1.2-7.4,1.4-11.2c0.3-3.8,0-7.6-0.4-11.3c0.6,3.7,1.1,7.5,1,11.3c0,3.8-0.2,7.6-0.8,11.4c-0.5,3.8-1.3,7.5-2.3,11.2
	s-2.2,7.3-3.8,10.9l-0.1-0.1c3.8,7.9,7.3,16,10.7,24.1l3.5,7.5l0.9,1.9l1,1.8l2,3.6c2.5,4.9,5.7,9.4,8.6,14.1c1,1.5,2.1,2.9,3.2,4.4
	c5.6-7.4,10.7-15.1,15.6-23c5.1-8.4,9.9-17.1,14.1-26s7.8-18.1,10.8-27.6c2.8-9.5,4.7-19.2,5.4-29.1c-0.5,9.9-2.3,19.7-4.8,29.2
	c-2.8,9.5-6.3,18.8-10.3,27.9c-4.1,9-8.7,17.8-13.7,26.4c-4.8,8.3-10,16.3-15.6,24.1c5,6.7,10.4,13.1,16.1,19.3
	c2.3,2.5,4.7,4.9,7.1,7.2c9.2-5.8,17.8-12.5,26-19.7c8.6-7.5,16.7-15.5,24.1-24.1l2.8-3.2l2.7-3.3c1.8-2.2,3.6-4.4,5.3-6.7
	c3.3-4.6,6.8-9.1,9.8-14c6.4-9.5,11.6-19.6,16.6-29.9c-4.8,10.4-9.8,20.7-16.1,30.2c-2.9,4.9-6.3,9.5-9.6,14.2
	c-1.7,2.3-3.5,4.5-5.2,6.8l-2.6,3.4l-2.8,3.3c-7.3,8.8-15.3,17-23.8,24.7c-8,7.2-16.4,14-25.5,20c4.9,4.7,10,9.3,15.3,13.6
	c3.2,2.7,6.5,5.3,9.9,7.8c9.2-0.5,18.5-3.2,27.1-6.9c9.1-3.9,17.6-9.2,25.5-15.3l5.7-4.8c1.9-1.6,3.6-3.4,5.4-5.1
	c3.7-3.4,6.9-7.2,10.2-11c1.7-1.8,3.1-3.9,4.6-5.9l4.5-6c2.8-4.2,5.4-8.4,8.1-12.6c-2.6,4.2-5.2,8.5-7.9,12.8l-4.4,6.1
	c-1.5,2-2.9,4.1-4.5,6c-3.3,3.8-6.4,7.8-10,11.2c-1.8,1.7-3.4,3.7-5.4,5.3l-5.7,4.9c-7.8,6.3-16.3,11.8-25.5,16
	c-7.9,3.5-16.2,6.3-25,7.3c3.8,2.7,7.6,5.3,11.6,7.8c3.9-0.1,7.8,0.4,11.7,0.9c1.3,0.2,2.6,0.3,3.8,0.5c1,0.1,2,0.2,3.1,0.3
	c0.7,0.1,1.4,0.1,2.1,0.2c1.2,0.1,2.3,0.1,3.5,0.1c1.3,0,2.6-0.1,3.9-0.2c19.1-1.9,35.2-16.1,47.8-31c5.5-6.5,10.8-13.5,14.1-21.3
	C550.9,163.1,546.2,140,535.1,122 M478.9,114.3c-0.9,1.1-2.1,2.1-3.5,2.2c-2.3,0.2-4.1-2.3-4.1-4.6c0-4.7,4.8-15.5,11-13.9
	c0.1,0,0.2,0.1,0.3,0.1c0.6,0.3,0.8,0.9,1,1.5C484.7,104.2,481.8,110.9,478.9,114.3"/>
<path class="st0" d="M431.6,250.7c-3.5,8.2-8.9,15.7-15.6,21.5c-6.8,5.8-14.8,10-23.3,12.6c-8.5,2.5-17.4,3.8-26.2,3.4
	c8.8,0.2,17.6-1.3,26-4c8.3-2.7,16.2-7,22.7-12.9s11.5-13.2,14.7-21.3c3.1-7.6,4.8-15.8,5.4-24c-3.2-2.5-6.3-5.1-9.4-7.7
	c-2.1-1.8-4.1-3.6-6.1-5.4l-9.5,6.7l-11.1,7.1c-3.8,2.1-7.6,4.4-11.5,6.4c-3.9,1.9-7.8,4-11.9,5.6c-4,1.8-8.1,3.2-12.3,4.7l-6.3,1.9
	c-2.1,0.6-4.3,1-6.4,1.5s-4.3,0.8-6.5,1.2c-2.2,0.2-4.3,0.6-6.5,0.7c-4.4,0.3-8.8,0.2-13.1-0.7c4.3,0.8,8.7,0.8,13,0.4
	c2.2-0.2,4.3-0.5,6.5-0.8c2.1-0.4,4.3-0.8,6.4-1.3c2.1-0.6,4.2-1,6.3-1.7l6.2-2c4.1-1.6,8.1-3.1,12.1-5c4-1.7,7.8-3.8,11.7-5.8
	c3.8-2,7.5-4.4,11.3-6.6l10.9-7.2l9-6.6c-5.6-5.2-11-10.6-16.2-16.2c-3.6-4-7-8.1-10.3-12.3l-10.7,4.8c-4,1.4-8,3-12.1,4.3l-6.2,1.7
	l-3.1,0.9l-3.1,0.6l-6.3,1.3l-6.4,0.8c-8.5,0.8-17.1,0.8-25.5-0.7c-4.2-0.8-8.4-1.8-12.3-3.3c-4-1.5-7.9-3.3-11.4-5.8
	c3.5,2.4,7.4,4.1,11.5,5.5c4,1.4,8.2,2.3,12.3,3c8.4,1.3,16.9,1.1,25.3,0.1l6.3-0.9l6.2-1.4l3.1-0.7l3-0.9l6.1-1.9
	c4-1.4,7.9-3,11.8-4.5l10-4.8c-3-4-6-8-8.8-12.2c-2.9-4.8-6-9.4-8.5-14.4l-2-3.7l-0.1-0.2c-5.8-1.9-11.5-4-16.8-6.9
	c-2.8-1.3-5.3-3-8-4.5c-2.5-1.7-5.1-3.4-7.5-5.3c-4.9-3.7-9.4-7.7-13.7-12.1c-4.2-4.4-8.2-9-11.6-14c3.6,4.9,7.6,9.4,12,13.6
	c4.3,4.2,9,8.1,13.9,11.5c2.4,1.8,5,3.3,7.6,4.9c2.7,1.4,5.2,3,8,4.2c4.7,2.4,9.6,4.1,14.6,5.6l-0.3-0.6l-3.4-7.7
	c-3.5-8.6-7.1-17.2-11-25.7l-0.1-0.1v-0.1c-0.7-1.5-1.4-3.1-2.2-4.6c-4.8-10-9.9-19.8-15.5-29.4c-5.6-9.5-11.6-18.9-18.7-27.4l0,0
	l0,0c0.5,6.5,0.2,13-0.9,19.4c-1.4,8.5-4.1,16.7-7.4,24.6c-3.8,9.2-8.3,18.1-12.7,27c1.9,8.3,5.2,16.4,9.8,23.6
	c3.1,5,7,9.7,12.3,12.4c5.2,2.6,11.3,2.9,17.1,4.1c7.8,1.5,15.3,4.8,21.8,9.4c0.7,0.5,1.4,1.1,1.7,1.9c0.2,0.7,0.1,1.4-0.1,2.1
	c-1.6,5.3-7.4,8.4-12.9,8.6c-5.5,0.2-10.8-2.1-15.6-4.8c-7-3.8-13.5-8.5-19.3-14c-5.1-4.8-9.7-10.2-15.7-13.9
	c-3.1-1.9-6.5-3.2-10.1-4c-1.7,4.9-3.2,9.9-4.2,15c-3.2,16-2,32.6,2.5,48.3c8.9,3.1,18.5,4.4,27.8,4c15.5-0.5,30.6-4.9,45.3-10.2
	c7.6-2.7,15.6-5.7,23.4-4c1.4,0.3,2.9,0.8,3.7,2c1.9,2.7-0.9,6.4-3.9,8c-7.1,4.1-15.6,4.8-23.8,5.5l-45.9,3.8
	c-7.2,0.6-14.5,1.2-21,4.2c-0.3,0.1-0.5,0.3-0.8,0.4c0.8,1.9,1.6,3.8,2.6,5.6c6.4,13,14.9,24.7,24.9,35.2c4,0.5,8,0.9,12,1.4
	c7.5,0.9,15,1.8,22.5,0.9c19-2.2,35.1-15.3,46.7-30.5c1.4-1.8,2.8-3.8,4.7-5c1.9-1.3,4.5-1.8,6.6-0.7c3.8,2.1,2.8,8.1,0.4,11.8
	c-3.7,5.6-9.1,9.8-14.5,13.8c-9.8,7.4-19.9,15-31.9,17.8c-9.2,2.2-19,1.3-28.3,3.3c-1.2,0.3-2.4,0.6-3.5,0.9
	c1.6,1.3,3.2,2.6,4.9,3.9c12.2,9.4,25.7,17.4,40.6,21.1s31.4,2.7,44.7-5c17.6-10.2,31.8-37.8,27.6-63.6c-4.2-2.7-8.2-5.5-12.1-8.5
	C436.6,235.6,434.8,243.4,431.6,250.7 M291.8,171.3c0-0.5,0.1-1.1,0.5-1.4c2.5-2.1,8.4,3.3,9.9,4.9l0.1,0.1c1.1,1.2,2.1,3.1,1.4,4.7
	c-0.1,0.1-0.1,0.3-0.3,0.4c-0.2,0.1-0.5,0.1-0.7,0c-4-1.3-8.4-3.4-10.5-7.2C292,172.3,291.8,171.8,291.8,171.3"/>
</svg>
