<?xml version="1.0" encoding="utf-8"?>
<!-- Generator: Adobe Illustrator 23.0.1, SVG Export Plug-In . SVG Version: 6.00 Build 0)  -->
<svg version="1.1" id="Layer_1" xmlns="http://www.w3.org/2000/svg" xmlns:xlink="http://www.w3.org/1999/xlink" x="0px" y="0px"
	 width="546.9px" height="593.8px" viewBox="0 0 546.9 593.8" style="enable-background:new 0 0 546.9 593.8;" xml:space="preserve"
	>
<style type="text/css">
	.st0{fill:#5F7A5A;enable-background:new    ;}
</style>
<path class="st0" d="M302.1,354.6c-2,2.7-4.6,5.1-7.1,7.3C297.6,359.7,300.2,357.4,302.1,354.6"/>
<path class="st0" d="M305.5,336.1c0.4,3.9,0.5,7.9-0.3,11.7C306,344,305.9,340,305.5,336.1"/>
<path class="st0" d="M261.7,403c1.4-8.5,5.2-16.7,9.9-24.1C267,386.3,263.1,394.4,261.7,403"/>
<path class="st0" d="M263.8,415.6c0.3,0.1,0.6,0.2,0.9,0.3C264.4,415.8,264.1,415.7,263.8,415.6c-1.9-0.8-2.5-3.1-2.6-5.2
	C261.3,412.5,262,414.8,263.8,415.6"/>
<path class="st0" d="M261.6,404c-0.1,0.9-0.2,1.9-0.3,2.8C261.4,405.9,261.5,404.9,261.6,404"/>
<path class="st0" d="M242.1,356.6c-0.4,0.3-0.9,0.3-1.4,0.2C241.1,356.9,241.6,356.8,242.1,356.6"/>
<path class="st0" d="M314.6,412.5c-0.8,1.4-1.7,2.7-2.7,4.1C312.9,415.2,313.8,413.9,314.6,412.5"/>
<path class="st0" d="M244.5,350.4c-0.2,1.6-0.7,3.2-1.4,4.8c0,0.1-0.1,0.1-0.1,0.2c0-0.1,0.1-0.1,0.1-0.2
	C243.9,353.6,244.3,352,244.5,350.4"/>
<path class="st0" d="M290.3,352c-2.2,3.5-4.5,6.8-6.9,10.1C285.8,358.8,288.1,355.5,290.3,352c3-4.8,5.7-9.9,7.5-15.3
	C296,342.1,293.3,347.2,290.3,352"/>
<path class="st0" d="M329.6,374c0.3-1.3,0.8-2.5,1.3-3.6C330.3,371.6,329.9,372.8,329.6,374"/>
<path class="st0" d="M314.6,412.5c6.9-11.2,11.3-24,12.4-37.1c0.1-1,0.1-1.9,0.2-2.9c0,1-0.1,1.9-0.2,2.9
	C326,388.5,321.6,401.2,314.6,412.5"/>
<path class="st0" d="M278.1,386.1c0.9-2.5,2.4-4.8,3.8-7.1C280.5,381.3,279.1,383.6,278.1,386.1"/>
<path class="st0" d="M297.4,351.1c0.5-1.6,1-3.2,1.5-4.8C298.4,347.9,298,349.6,297.4,351.1"/>
<path class="st0" d="M336.7,374.7c0.8,1.5,1.5,3,2.2,4.5C338.2,377.7,337.5,376.2,336.7,374.7"/>
<path class="st0" d="M287.4,448.6c-0.5,0-1-0.2-1.5-0.4C286.3,448.4,286.9,448.5,287.4,448.6"/>
<path class="st0" d="M333.2,368.1c0.6,1,1.1,2,1.7,3.1C334.3,370.1,333.8,369.1,333.2,368.1"/>
<path class="st0" d="M306.8,328.8c2.6,2.4,4.9,5,7.1,7.8C311.7,333.8,309.4,331.2,306.8,328.8"/>
<path class="st0" d="M244.7,348.7c0-0.3,0-0.5,0.1-0.8C244.8,348.2,244.7,348.5,244.7,348.7"/>
<path class="st0" d="M276.1,473.4c2.4,1.1,4.8,2.3,7.2,3.3C280.8,475.7,278.4,474.6,276.1,473.4"/>
<path class="st0" d="M283.4,476.8c10.1,4.3,20.6,7.4,31,5.3C304.1,484.2,293.5,481.1,283.4,476.8"/>
<path class="st0" d="M256.4,297.2c0.2-1.2,0.4-2.3,0.5-3.5c-3.2-3.5-6.4-6.8-10.3-9.1c3.9,2.3,7.2,5.7,10.3,9.1
	C256.9,294.9,256.7,296.1,256.4,297.2"/>
<path class="st0" d="M237.5,348.4c0.2-2.9,0.9-5.7,1.7-8.5c1.1-3.5,2.3-7,3.7-10.4c-1.4,3.4-2.7,6.9-3.7,10.4
	C238.4,342.7,237.7,345.5,237.5,348.4"/>
<path class="st0" d="M299.8,343.3c0.4-1.1,0.7-2.3,1.1-3.4C300.6,341,300.2,342.1,299.8,343.3"/>
<path class="st0" d="M238.4,354.9L238.4,354.9L238.4,354.9"/>
<path class="st0" d="M258.1,316.2c3.3-4,6.7-8,10.4-11.6C264.9,308.2,261.4,312.2,258.1,316.2"/>
<path class="st0" d="M285.4,447.6c0.1,0.2,0.3,0.4,0.5,0.5C285.7,448,285.5,447.8,285.4,447.6"/>
<path class="st0" d="M291,364.6c1.1-1.9,2.3-3.8,3.3-5.7C293.2,360.8,292.1,362.7,291,364.6"/>
<path class="st0" d="M298.9,346.3c0.3-1,0.6-2,0.9-3.1C299.5,344.3,299.2,345.3,298.9,346.3"/>
<path class="st0" d="M313.9,336.6c3.8,4.8,7,10,10.1,15.3C320.9,346.7,317.6,341.4,313.9,336.6"/>
<path class="st0" d="M298.4,334.9c-0.2,0.6-0.4,1.2-0.6,1.9C298,336.1,298.3,335.5,298.4,334.9"/>
<path class="st0" d="M244.8,348c0.1-1.4,0.1-2.9,0.1-4.4C244.9,345,244.9,346.5,244.8,348"/>
<path class="st0" d="M276.2,397.9c0.2-2.7,0.4-5.4,0.9-8C276.6,392.6,276.4,395.2,276.2,397.9"/>
<path class="st0" d="M244.5,350.4c0.1-0.6,0.1-1.1,0.2-1.7C244.7,349.3,244.6,349.8,244.5,350.4"/>
<path class="st0" d="M283.4,476.8c0,0-0.1,0-0.1-0.1C283.3,476.8,283.4,476.8,283.4,476.8"/>
<path class="st0" d="M244.9,343.6c0-0.8,0-1.6,0.1-2.4C245,342,244.9,342.8,244.9,343.6"/>
<path class="st0" d="M272.4,411.3c0.4-0.5,0.7-1.1,1-1.7C273.1,410.2,272.8,410.8,272.4,411.3"/>
<path class="st0" d="M261.7,403c-0.1,0.3-0.1,0.7-0.1,1C261.6,403.6,261.7,403.3,261.7,403"/>
<path class="st0" d="M275.8,401.9c0.2-1.3,0.3-2.7,0.4-4C276.1,399.3,276,400.6,275.8,401.9"/>
<path class="st0" d="M261.3,406.8c-0.1,0.9-0.1,1.8-0.1,2.7C261.2,408.6,261.2,407.7,261.3,406.8"/>
<path class="st0" d="M305.2,331c-1.8,2.8-3.1,5.8-4.2,8.9C302,336.8,303.3,333.8,305.2,331"/>
<path class="st0" d="M268,415.2c1.8-0.9,3.2-2.2,4.4-3.9C271.3,413,269.8,414.3,268,415.2c-1,0.5-2.2,0.8-3.3,0.6
	C265.9,416,267,415.7,268,415.2"/>
<path class="st0" d="M243,355.3c-0.3,0.5-0.5,0.9-1,1.2l0,0C242.5,356.3,242.8,355.8,243,355.3"/>
<path class="st0" d="M296.1,434.2c-1.2,1.1-2.4,2.2-3.6,3.3C293.7,436.3,294.9,435.2,296.1,434.2"/>
<path class="st0" d="M327.5,363.9c-0.1,1.9-0.1,3.8-0.2,5.7C327.4,367.7,327.4,365.8,327.5,363.9c0.1-1.8,0.1-3.7,0.3-5.5
	c-0.6-1-1.1-1.9-1.7-2.9c0.6,1,1.1,1.9,1.7,2.9C327.6,360.2,327.6,362.1,327.5,363.9"/>
<path class="st0" d="M246.2,322.3c3.4-7.1,7-14.2,9.3-21.7c0.3-1.1,0.6-2.3,0.9-3.4c-0.2,1.2-0.6,2.3-0.9,3.4
	C253.2,308.2,249.6,315.2,246.2,322.3"/>
<path class="st0" d="M239.3,356.1c0.4,0.3,0.8,0.6,1.3,0.7C240.1,356.7,239.7,356.5,239.3,356.1c-0.4-0.3-0.6-0.7-0.9-1.2
	C238.6,355.4,238.9,355.8,239.3,356.1"/>
<path class="st0" d="M231,280c-8.1-1.4-16.1-3.3-24.1-5.6C214.8,276.7,222.9,278.5,231,280"/>
<path class="st0" d="M238.4,354.9c-0.2-0.4-0.4-0.9-0.5-1.4c-0.4-1.7-0.5-3.4-0.4-5.1c-0.1,1.7,0,3.4,0.4,5.1
	C238.1,354,238.2,354.4,238.4,354.9"/>
<path class="st0" d="M296.1,434.2c1.2-1.1,2.4-2.2,3.6-3.3c4.6-4.3,8.7-9.1,12.2-14.3c-3.6,5.2-7.7,10-12.2,14.3
	C298.6,432,297.3,433.1,296.1,434.2"/>
<path class="st0" d="M296.1,444.7c-2.5,2-5.2,3.9-8.4,3.9C290.9,448.6,293.7,446.7,296.1,444.7"/>
<path class="st0" d="M334.9,371.2c0.6,1.2,1.2,2.3,1.8,3.5C336.1,373.5,335.5,372.3,334.9,371.2"/>
<path class="st0" d="M296.1,444.7c2.3-1.9,4.5-3.8,6.6-5.9C300.6,440.9,298.4,442.8,296.1,444.7"/>
<path class="st0" d="M289.1,440.9c-1.1,1.2-2.1,2.4-3.1,3.7C287,443.3,288,442.1,289.1,440.9"/>
<path class="st0" d="M328.5,381.3c0.2-2.4,0.4-4.9,1-7.3C328.9,376.4,328.7,378.9,328.5,381.3"/>
<path class="st0" d="M328.3,383.8c0.1-0.8,0.1-1.6,0.2-2.4C328.5,382.1,328.4,382.9,328.3,383.8c-1.7,20.6-11.1,40.4-25.6,55
	C317.3,424.2,326.6,404.3,328.3,383.8"/>
<path class="st0" d="M339,379.2c1,2.1,1.9,4.2,2.8,6.3C340.9,383.4,339.9,381.3,339,379.2"/>
<path class="st0" d="M333.2,368.1c-0.2-0.4-0.4-0.8-0.6-1.2c-0.6,1.1-1.2,2.3-1.7,3.5c0.5-1.2,1.1-2.3,1.7-3.5
	C332.8,367.3,333,367.7,333.2,368.1"/>
<path class="st0" d="M206.9,274.4L206.9,274.4c0,0-0.3,2.5-0.5,7.4C206.5,279.3,206.7,276.9,206.9,274.4"/>
<path class="st0" d="M268.1,467.9c-6.4,6-13.7,10.8-21.6,14.4c-8.5,4-17.8,6.2-27.2,6.5c-1.2,0.1-2.3,0-3.5-0.1s-2.3,0-3.5-0.2
	c-2.3-0.3-4.7-0.5-6.9-1.1c-4.6-0.9-9-2.5-13.3-4.5c-8.5-3.9-16.1-9.6-22.3-16.5c6.3,6.8,14.1,12.3,22.6,16
	c4.2,1.9,8.6,3.3,13.2,4.1c2.3,0.5,4.6,0.7,6.8,0.9c1.1,0.2,2.3,0.1,3.5,0.1s2.3,0.1,3.5,0c9.2-0.5,18.3-2.8,26.5-6.9
	c7.8-3.7,15.1-8.8,21.2-14.9l-3.8-6.4c-2.5-4.3-5.1-8.4-7.3-12.8c-7.9,0.8-15.8,0.7-23.5-0.5c-8.2-1.3-16.2-3.4-24-6.2
	c-7.7-2.9-15.3-6.3-22.5-10.1c-7.2-3.9-14.3-8.2-20.9-13c6.7,4.7,13.9,8.8,21.2,12.5s14.9,6.9,22.6,9.6c7.8,2.6,15.8,4.5,23.8,5.6
	c7.4,0.9,14.9,0.9,22.2,0c-4.4-8.3-8.9-16.5-12.8-25.1l-3.2-6.8l-1.6-3.4l-1.5-3.5l-5-11.9c-6.2-1.1-12.4-2.5-18.3-5l-2.3-0.9
	l-2.2-1c-1.5-0.7-3-1.4-4.4-2.1c-2.8-1.6-5.7-3.1-8.4-4.9c-5.4-3.5-10.6-7.5-15.3-11.9s-9.1-9.2-12.9-14.4c4,5.1,8.5,9.7,13.3,14
	s10,8.1,15.5,11.4c2.7,1.7,5.6,3.2,8.4,4.6c1.4,0.7,2.9,1.3,4.4,1.9l2.2,1l2.3,0.8c5.4,2.1,11,3.2,16.7,4.1
	c-5.4-13.8-10.1-27.8-14-42.1c-3-3.1-6-6.3-8.9-9.6c-2.9-3.4-5.7-6.8-8.4-10.4c-2.6-3.6-5.1-7.3-7.4-11.1c-2.3-3.8-4.4-7.7-6.1-11.8
	c1.8,4.1,4,7.9,6.4,11.7c2.4,3.7,5,7.4,7.7,10.9s5.6,6.9,8.5,10.2c2.5,2.8,5.1,5.4,7.7,8c-1.1-4.3-2.2-8.6-3.1-13
	c-3.6-17.2-6.3-34.9-5.7-52.5c0.1-4.9,0.5-7.4,0.5-7.4c-6.4,8.7-19.4,12.3-26,21.4c-4.7,6.5-5.5,15.1-9.5,22
	c0.5,2.1,0.9,4.1,1.5,6.2c1.9,7.2,5.1,14.3,10.8,19c2.6,2.1,5.6,3.6,8.2,5.5c0.7,0.6,1.4,1.2,1.8,2c0.6,1.6-0.5,3.4-2,4
	s-3.3,0.4-4.8-0.2c-2.9-1.2-5.2-3.5-7.3-6c-4.6-5.5-8.3-11.6-11.1-18.2c-0.8-1.8-1.5-3.8-2.3-5.6c-4.2,4.5-9.1,8.6-12.1,14
	c-2.7,5-3.7,10.7-4,16.4c1.5,5.4,2.8,10.9,4.6,16.3c2.9,8.6,7.2,17.1,14.5,22.5c5.8,4.2,12.8,6.2,19.5,8.7
	c9.9,3.8,19.2,9.1,28.3,14.5c2.5,1.5,5.1,3,7.3,4.9c3.1,2.9,5.3,6.8,6.1,10.9c-2.2,1.2-4.9,0.4-7.2-0.7c-7.8-3.8-14-10-21.5-14.4
	c-4.2-2.5-8.8-4.4-12.8-7.2c-3.1-2.1-5.9-4.8-9.1-6.9c-3.5-2.3-7.4-4.1-10.8-6.4c-2.8-1.9-5.4-4.3-7.5-6.9c-2.3-2.8-4.3-5.8-5.9-9.1
	c-1.5-3.3-2.7-6.7-4.8-9.7c-0.2-0.3-0.4-0.5-0.6-0.8c0.9,18.7,3.7,37.4,2,56.1c-0.2,2.5-0.5,5-0.8,7.5c4.9,4.9,10.4,9,16.7,11.7
	c4.9,2.1,10.2,3.3,14.8,6c2.8,1.7,5.3,3.8,8.2,5.5c5.7,3.4,12.4,4.8,19,4.9s13.2-1.1,19.6-2.6c3.8-0.9,7.7-1.8,11.5-0.9
	c1.6,0.4,3.3,1.4,3.6,3.1c0.4,2.3-2.2,3.9-4.4,4.7c-10.9,3.8-22.9,4.4-34,1.6c-8.3-2.1-16-5.8-23.5-9.7c-2.8-1.4-5.6-2.9-8.2-4.6
	c-3.5-2.3-6.6-5-10.1-7.3c-3.4-2.1-7.2-3.7-11-5.3c-0.9-0.4-1.9-0.8-2.8-1.1c-1.7,13.1-3,26.2,3.2,37.4c2.9,5.3,7.2,9.6,11.7,13.6
	c9.6,8.5,20.3,15.9,32.5,19.9c12.1,4,25.9,4.2,37.4-1.1c5.7-2.7,10.7-6.5,15.4-10.8c6.6-6.1,15.2-17.7,20.7-25.9l-0.6-1L268.1,467.9
	z M192.8,293.8c0.4-0.9,1.6-1.7,2.7-1.2c2.4,1.1,3.8,4.5,2.1,6.7c-1.2,1.5-3.9,2.2-5.2,0.5c-0.4-0.6-0.6-1.3-0.6-2
	C191.7,296.5,192.2,295.1,192.8,293.8 M178.1,388.1c-1.2,0.2-2.3-0.4-3.2-1.1c-1.8-1.3-3.3-3-4.4-4.9c-0.3-0.4-0.6-0.9-0.8-1.3
	c-0.4-0.7-0.5-1.5,0.1-2.3c0.5-0.6,1.3-1,2.1-1.1c1.1-0.1,2.3,0.2,3.3,0.6c2,0.8,3.8,2.2,4.8,4c0.6,1.1,1,2.4,0.7,3.6
	C180.3,386.8,179.3,387.9,178.1,388.1"/>
<path class="st0" d="M352.4,448.8c1.1-4.9,0.9-10.2,0.4-15.3c0-0.5-0.1-0.9-0.1-1.4c-1.3-13.7-3.7-27.3-8.4-40.2
	c-0.8-2.2-1.6-4.3-2.5-6.4s-1.9-4.2-2.8-6.3c-0.7-1.5-1.5-3-2.2-4.5c-0.6-1.2-1.2-2.3-1.8-3.5c-0.5-1-1.1-2-1.7-3.1
	c-0.2-0.4-0.4-0.8-0.6-1.2c-0.6,1.1-1.2,2.3-1.7,3.5s-1,2.4-1.3,3.6c-0.6,2.4-0.8,4.8-1,7.3c-0.1,0.8-0.1,1.6-0.2,2.4
	c-1.7,20.6-11.1,40.4-25.6,55c-2.1,2.1-4.3,4.1-6.6,5.9c-2.5,2-5.2,3.9-8.4,3.9c-0.1,0-0.3,0-0.4,0c-0.5,0-1-0.2-1.5-0.4
	c-0.2-0.1-0.4-0.3-0.5-0.5c-0.1-0.1-0.1-0.2-0.2-0.3c-0.4-0.9,0.2-1.9,0.8-2.7c1-1.3,2-2.5,3.1-3.7s2.3-2.3,3.4-3.4
	c1.2-1.1,2.4-2.2,3.6-3.3c1.2-1.1,2.4-2.2,3.6-3.3c4.6-4.3,8.7-9.1,12.2-14.3c0.9-1.3,1.8-2.7,2.7-4.1c6.9-11.2,11.3-24,12.4-37.1
	c0.1-1,0.1-1.9,0.2-2.9c0-1,0.1-1.9,0.1-2.9c0.1-1.9,0.1-3.8,0.2-5.7c0.1-1.8,0.1-3.7,0.3-5.5c-0.6-1-1.1-1.9-1.7-2.9
	c-0.7-1.2-1.4-2.4-2.1-3.6c-3.1-5.3-6.4-10.5-10.1-15.3c-2.2-2.8-4.5-5.4-7.1-7.8c-0.6,0.7-1.1,1.4-1.6,2.2
	c-1.8,2.8-3.1,5.8-4.2,8.9c-0.4,1.1-0.8,2.2-1.1,3.4c-0.3,1-0.6,2-0.9,3.1c-0.5,1.6-1,3.2-1.5,4.8s-1.1,3.2-1.8,4.7
	c-0.4,1-0.9,2-1.4,3c-1,2-2.1,3.9-3.3,5.7c-0.6,0.9-1.2,1.9-1.7,2.8c-2.4,3.9-4.9,7.7-7.3,11.6c-1.4,2.3-2.9,4.6-3.8,7.1
	c-0.5,1.3-0.8,2.5-1,3.8c-0.5,2.6-0.7,5.3-0.9,8c-0.1,1.3-0.2,2.7-0.4,4c-0.4,2.6-1.1,5.4-2.3,7.7c-0.3,0.6-0.7,1.2-1,1.7
	c-1.1,1.6-2.6,3-4.4,3.9c-1,0.5-2.2,0.8-3.3,0.6c-0.3,0-0.6-0.1-0.9-0.3c-1.9-0.8-2.5-3.1-2.6-5.2c0-0.3,0-0.6,0-0.9
	c0-0.9,0-1.8,0.1-2.7c0.1-0.9,0.2-1.9,0.3-2.8c0-0.3,0.1-0.7,0.1-1c1.4-8.5,5.2-16.7,9.9-24.1c3.6-5.8,7.8-11.2,11.8-16.8
	c2.4-3.3,4.8-6.7,6.9-10.1c3-4.8,5.7-9.9,7.5-15.3c0.2-0.6,0.4-1.2,0.6-1.9c1.1-3.6,1.8-7.3,2-11.1c-10.1-7.1-22-11.8-31.9-19.1
	c-3.7,3.6-7.1,7.6-10.4,11.6c-1.1,1.3-2.2,2.7-3.3,4c-4,4.9-8,10-9.3,16.2c-0.3,1.5-0.5,3.1-0.5,4.7c0,0.8-0.1,1.6-0.1,2.4
	c0,1.5-0.1,2.9-0.1,4.4c0,0.3,0,0.5-0.1,0.8c0,0.6-0.1,1.1-0.2,1.7c-0.2,1.6-0.7,3.2-1.4,4.8c0,0.1-0.1,0.1-0.1,0.2
	c-0.3,0.5-0.5,0.9-1,1.2l0,0c-0.4,0.3-0.9,0.3-1.4,0.2c-0.5-0.1-1-0.3-1.3-0.7c-0.4-0.3-0.6-0.7-0.9-1.2l0,0
	c-0.2-0.4-0.4-0.9-0.5-1.4c-0.4-1.7-0.5-3.4-0.4-5.1c0.2-2.9,0.9-5.7,1.7-8.5c1.1-3.5,2.3-7,3.7-10.4c1-2.4,2.1-4.8,3.2-7.2
	c3.4-7.1,7-14.2,9.4-21.7c0.3-1.1,0.6-2.3,0.9-3.4c0.2-1.2,0.4-2.3,0.5-3.5c-3.2-3.5-6.4-6.8-10.3-9.1c-0.6-0.3-1.1-0.7-1.7-0.9
	c-4.3-2.1-9.2-2.8-14-3.7c-8.1-1.4-16.1-3.3-24.1-5.6c-1.4,20.1,1.8,40.1,6.3,59.6c0.5,2.3,1.1,4.5,1.7,6.8
	c3.6-7.3,6.8-14.9,9.8-22.5c3.2-8.2,6-16.5,8.1-25c-1.9,8.6-4.6,17-7.6,25.2c-3,8.1-6.2,16.1-9.9,23.9c4.4,16.6,10.1,32.7,16.6,48.6
	l4.2,9.6c4.4-4.7,8.5-9.7,12.3-14.9c4.2-5.7,8.3-11.6,11.9-17.7c3.7-6.1,7.2-12.3,10.3-18.8c3.2-6.4,5.9-13,8.5-19.6
	c-2.4,6.7-5,13.4-8,19.9c-2.9,6.5-6.3,12.9-9.8,19.1s-7.4,12.3-11.5,18.1c-4,5.6-8.1,11-12.7,16.1l0.9,1.9l1.5,3.4l1.7,3.4l3.3,6.7
	c4.1,8.6,8.8,16.9,13.4,25.2c6.8-4.6,13.1-10.2,18.8-16.2c6.1-6.5,11.6-13.6,16.2-21.2l1.8-2.8l1.6-3c1-2,2.2-3.9,3.1-6l2.7-6.1
	l0.7-1.5l0.6-1.6l1.1-3.2l1.1-3.2l0.6-1.6l0.4-1.6l1.7-6.5c0.6-2.2,0.9-4.4,1.3-6.6l1.1-6.6l-1,6.7c-0.3,2.2-0.6,4.5-1.2,6.6
	l-1.5,6.6l-0.4,1.6l-0.5,1.6l-1,3.2l-1,3.2l-0.5,1.6l-0.6,1.6l-2.6,6.2c-0.9,2.1-2,4-3,6.1l-1.5,3l-1.7,2.9
	c-4.5,7.8-9.9,15.1-16,21.8c-5.7,6.3-11.9,12-18.9,17c2.3,4.2,4.9,8.2,7.3,12.2l4.2,6.9c7.8,0.3,15.7,0.1,23.5-0.7
	c8.3-1,16.7-2.6,24.3-6c3.7-1.8,7-4.4,9.7-7.6c2.6-3.3,4.7-6.9,6.5-10.7c3.4-7.7,5.5-16,6.5-24.3c-0.9,8.4-2.7,16.7-6,24.6
	c-1.7,3.9-3.7,7.7-6.3,11c-2.7,3.3-6,6.2-9.9,8.1c-7.7,3.7-16.2,5.5-24.6,6.7c-7.4,1-14.8,1.3-22.3,1.2l2.2,3.7l1.8,2.9
	c2.4,1.1,4.8,2.3,7.2,3.3c0,0,0.1,0,0.1,0.1c10.1,4.3,20.6,7.4,31,5.3c0.9-0.2,1.9-0.4,2.8-0.7c8.4-2.5,15.3-8.3,21.9-14
	c3.3-2.9,6.7-6,9.3-9.6c0.9-1.2,1.6-2.5,2.3-3.8C351.4,452.4,352,450.6,352.4,448.8 M322.4,444.9c-1.6,0.7-3.5,0.6-5.2,0.3
	c-0.9-0.2-1.7-0.4-2.4-1c-1.2-1-1.4-2.9-0.8-4.3c0.5-1.5,1.7-2.6,3-3.5c2.2-1.6,12.5-7,10.9-0.4C327,439.4,325.8,443.4,322.4,444.9"
	/>
</svg>
