<?xml version="1.0" encoding="utf-8"?>
<!-- Generator: Adobe Illustrator 23.0.1, SVG Export Plug-In . SVG Version: 6.00 Build 0)  -->
<svg version="1.1" id="Layer_1" xmlns="http://www.w3.org/2000/svg" xmlns:xlink="http://www.w3.org/1999/xlink" x="0px" y="0px"
	 width="283.5px" height="283.5px" viewBox="0 0 283.5 283.5" style="enable-background:new 0 0 283.5 283.5;" xml:space="preserve"
	>
<path style="fill:#FFFFFF;" d="M124.1,101.4c-8.3-4.6-18.5,1.5-18.3,11l1,62.1c0.1,9.5,10.5,15.3,18.6,10.4L197,142l0,0L124.1,101.4
	z"/>
<path style="fill:#FFFFFF;" d="M141.2,274.7C68.1,274.7,8.6,215.2,8.6,142S68.1,9.4,141.2,9.4c73.1,0,132.6,59.5,132.6,132.6
	c0,21.1-5.1,42.1-14.7,60.7c-9.3,18-22.8,33.9-39.2,46c-0.8,0.6-1.7,0.9-2.7,0.9c-1.5,0-2.8-0.7-3.6-1.8c-1.5-2-1.1-4.8,0.9-6.3
	c15.2-11.3,27.9-26.1,36.5-42.9c9.1-17.6,13.7-36.6,13.7-56.6c0-68.1-55.4-123.6-123.6-123.6C73,18.5,17.6,73.9,17.6,142
	S73,265.6,141.2,265.6c2.5,0,4.5,2,4.5,4.5C145.7,272.6,143.7,274.7,141.2,274.7z"/>
</svg>
