<?xml version="1.0" encoding="utf-8"?>
<!-- Generator: Adobe Illustrator 23.0.1, SVG Export Plug-In . SVG Version: 6.00 Build 0)  -->
<svg version="1.1" id="Layer_1" xmlns="http://www.w3.org/2000/svg" xmlns:xlink="http://www.w3.org/1999/xlink" x="0px" y="0px"
	 width="64px" height="76px" viewBox="0 0 64 76" style="enable-background:new 0 0 64 76;" xml:space="preserve">
<path style="fill:#B66226;" d="M63.5,32.9c0-17.3-14-31.3-31.3-31.3S0.9,15.6,0.9,32.9c0,12.6,7.4,23.4,18.1,28.4
	c6.2,6.3,13.1,13.6,13.1,13.6s6.6-7.2,12.6-13.2C55.8,56.9,63.5,45.8,63.5,32.9z"/>
<path style="fill:#FFFFFF;" d="M53.8,32.3c-0.3-0.4-0.8-0.5-1.2-0.2c-0.2,0.2-0.5,0.3-0.7,0.5c-0.1,0-0.1,0.1-0.2,0.1
	c-0.2,0.1-0.4,0.3-0.5,0.4c-0.1,0-0.1,0.1-0.2,0.1c-0.2,0.2-0.5,0.4-0.7,0.5c0,0-0.1,0.1-0.1,0.1c-0.2,0.2-0.4,0.3-0.5,0.5
	c-0.1,0.1-0.1,0.1-0.2,0.2c-0.2,0.2-0.3,0.3-0.5,0.5c0,0-0.1,0.1-0.1,0.1c-0.2,0.2-0.4,0.4-0.6,0.6c0,0.1-0.1,0.1-0.1,0.2
	c-0.1,0.2-0.3,0.3-0.4,0.5c-0.1,0.1-0.1,0.1-0.2,0.2c-0.2,0.2-0.3,0.4-0.5,0.6c0,0,0,0.1-0.1,0.1c-0.2,0.2-0.3,0.5-0.5,0.7
	c0,0.1-0.1,0.1-0.1,0.2c-0.1,0.2-0.2,0.4-0.4,0.5c0,0.1-0.1,0.1-0.1,0.2c-0.2,0.2-0.3,0.5-0.4,0.7c0,0,0,0,0,0.1
	c-0.1,0.2-0.3,0.5-0.4,0.7c0,0.1-0.1,0.1-0.1,0.2c-0.1,0.2-0.2,0.4-0.3,0.6c0,0.1-0.1,0.1-0.1,0.2c-0.1,0.3-0.2,0.5-0.3,0.8
	c0,0.1,0,0.1-0.1,0.2c-0.1,0.2-0.2,0.4-0.3,0.6c0,0.1-0.1,0.2-0.1,0.2c-0.1,0.2-0.2,0.4-0.2,0.6c0,0,0,0.1,0,0.1c0-0.1,0-0.1,0-0.2
	c-0.1-0.4-0.1-0.7-0.2-1.1c0-0.1,0-0.2-0.1-0.4c-0.1-0.5-0.2-0.9-0.3-1.4c0-0.1,0-0.1-0.1-0.2c-0.1-0.4-0.2-0.8-0.3-1.2
	c0-0.1-0.1-0.3-0.1-0.4c-0.1-0.3-0.2-0.7-0.3-1c0-0.1-0.1-0.3-0.1-0.4c-0.1-0.4-0.2-0.7-0.3-1.1c0-0.1-0.1-0.2-0.1-0.3
	c-0.2-0.5-0.3-0.9-0.5-1.4c0-0.1-0.1-0.2-0.1-0.2c-0.1-0.4-0.3-0.7-0.5-1.1c-0.1-0.1-0.1-0.3-0.2-0.4c-0.1-0.3-0.3-0.6-0.4-0.9
	c0-0.1-0.1-0.2-0.1-0.3c0,0,0-0.1,0.1-0.1c0.3-0.4,0.6-0.7,0.9-1.1c0-0.1,0.1-0.1,0.1-0.2c0.3-0.3,0.6-0.7,0.9-1
	c0-0.1,0.1-0.1,0.1-0.2c0.3-0.3,0.6-0.7,1-1c0,0,0.1-0.1,0.1-0.1c0.3-0.3,0.7-0.6,1-0.9c0,0,0.1-0.1,0.1-0.1
	c0.3-0.3,0.7-0.6,1.1-0.9c0,0,0.1-0.1,0.1-0.1c0.4-0.3,0.7-0.6,1.1-0.9c0,0,0.1-0.1,0.1-0.1c0.4-0.3,0.8-0.6,1.2-0.8c0,0,0,0,0.1,0
	c0.4-0.3,0.9-0.5,1.3-0.8c0.4-0.2,0.5-0.7,0.3-1.1c-0.2-0.4-0.7-0.5-1.1-0.3c-0.4,0.2-0.8,0.5-1.2,0.8c0,0-0.1,0.1-0.1,0.1
	c-0.4,0.2-0.8,0.5-1.1,0.8c-0.1,0-0.1,0.1-0.2,0.1c-0.4,0.3-0.7,0.5-1.1,0.8c-0.1,0-0.1,0.1-0.2,0.1c-0.4,0.3-0.7,0.6-1.1,0.9
	c0,0-0.1,0.1-0.1,0.1c-0.4,0.3-0.7,0.6-1.1,1c0,0,0,0,0,0c-0.3,0.3-0.7,0.7-1,1c0,0-0.1,0.1-0.1,0.1c-0.3,0.3-0.6,0.7-0.9,1
	c0,0.1-0.1,0.1-0.1,0.2c-0.3,0.3-0.6,0.7-0.9,1c0,0,0,0.1-0.1,0.1c-1.5-2.9-3.4-5.6-5.6-8.1c0.1-0.1,0.2-0.2,0.3-0.3
	c0.2-0.2,0.3-0.3,0.5-0.5c0.2-0.2,0.4-0.4,0.6-0.6c0.2-0.2,0.3-0.3,0.5-0.5c0.2-0.2,0.4-0.4,0.6-0.6c0.2-0.2,0.3-0.3,0.5-0.5
	c0.2-0.2,0.4-0.4,0.7-0.6c0.2-0.1,0.3-0.3,0.5-0.4c0.2-0.2,0.5-0.4,0.7-0.6c0.2-0.1,0.3-0.3,0.5-0.4c0.2-0.2,0.5-0.4,0.7-0.6
	c0.2-0.1,0.3-0.2,0.5-0.4c0.3-0.2,0.6-0.4,0.8-0.6c0.1-0.1,0.3-0.2,0.4-0.3c0.4-0.3,0.9-0.6,1.3-0.8c0.4-0.2,0.5-0.8,0.3-1.1
	c-0.2-0.4-0.8-0.5-1.2-0.3c-0.5,0.3-0.9,0.6-1.4,0.9c-0.1,0.1-0.3,0.2-0.4,0.3c-0.3,0.2-0.6,0.4-0.9,0.6c-0.2,0.1-0.3,0.3-0.5,0.4
	c-0.3,0.2-0.5,0.4-0.8,0.6c-0.2,0.1-0.4,0.3-0.5,0.4c-0.2,0.2-0.5,0.4-0.7,0.6c-0.2,0.1-0.4,0.3-0.5,0.5c-0.2,0.2-0.5,0.4-0.7,0.6
	c-0.2,0.2-0.3,0.3-0.5,0.5c-0.2,0.2-0.4,0.4-0.7,0.6c-0.2,0.2-0.3,0.3-0.5,0.5c-0.2,0.2-0.4,0.4-0.6,0.6c-0.2,0.2-0.3,0.3-0.5,0.5
	c-0.1,0.1-0.2,0.2-0.3,0.3c-0.1-0.1-0.2-0.2-0.3-0.3c-0.2-0.2-0.3-0.4-0.5-0.5c-0.2-0.2-0.4-0.4-0.6-0.6c-0.2-0.2-0.3-0.3-0.5-0.5
	c-0.2-0.2-0.4-0.4-0.7-0.6c-0.2-0.2-0.4-0.3-0.5-0.5c-0.2-0.2-0.5-0.4-0.7-0.6c-0.2-0.2-0.4-0.3-0.5-0.5c-0.2-0.2-0.5-0.4-0.7-0.6
	c-0.2-0.1-0.4-0.3-0.5-0.4c-0.3-0.2-0.5-0.4-0.8-0.6c-0.2-0.1-0.3-0.3-0.5-0.4c-0.3-0.2-0.6-0.4-0.9-0.6c-0.1-0.1-0.3-0.2-0.4-0.3
	c-0.4-0.3-0.9-0.6-1.4-0.9c-0.4-0.2-0.9-0.1-1.2,0.3c-0.2,0.4-0.1,0.9,0.3,1.1c0.4,0.3,0.9,0.5,1.3,0.8c0.1,0.1,0.3,0.2,0.4,0.3
	c0.3,0.2,0.6,0.4,0.9,0.6c0.2,0.1,0.3,0.2,0.5,0.4c0.3,0.2,0.5,0.4,0.8,0.6c0.2,0.1,0.3,0.3,0.5,0.4c0.2,0.2,0.5,0.4,0.7,0.6
	c0.2,0.1,0.3,0.3,0.5,0.4c0.2,0.2,0.4,0.4,0.7,0.6c0.2,0.2,0.3,0.3,0.5,0.5c0.2,0.2,0.4,0.4,0.6,0.6c0.2,0.2,0.3,0.3,0.5,0.5
	c0.2,0.2,0.4,0.4,0.6,0.6c0.2,0.2,0.3,0.3,0.5,0.5c0.1,0.1,0.2,0.2,0.3,0.4c-2.1,2.5-4,5.2-5.6,8.1c0,0,0-0.1-0.1-0.1
	c-0.3-0.4-0.6-0.7-0.9-1c0-0.1-0.1-0.1-0.1-0.2c-0.3-0.3-0.6-0.7-0.9-1c0,0-0.1-0.1-0.1-0.1c-0.3-0.3-0.7-0.7-1-1c0,0,0,0,0,0
	c-0.3-0.3-0.7-0.6-1.1-1c0,0-0.1-0.1-0.1-0.1c-0.3-0.3-0.7-0.6-1.1-0.9c-0.1,0-0.1-0.1-0.2-0.1c-0.4-0.3-0.7-0.5-1.1-0.8
	c-0.1,0-0.1-0.1-0.2-0.1c-0.4-0.3-0.8-0.5-1.1-0.8c0,0-0.1-0.1-0.1-0.1c-0.4-0.3-0.8-0.5-1.2-0.8c-0.4-0.2-0.9-0.1-1.1,0.3
	c-0.2,0.4-0.1,0.9,0.3,1.1c0.4,0.3,0.9,0.5,1.3,0.8c0,0,0,0,0.1,0c0.4,0.3,0.8,0.5,1.2,0.8c0,0,0.1,0.1,0.1,0.1
	c0.4,0.3,0.8,0.6,1.1,0.9c0,0,0.1,0.1,0.1,0.1c0.4,0.3,0.7,0.6,1.1,0.9c0,0,0.1,0.1,0.1,0.1c0.3,0.3,0.7,0.6,1,0.9
	c0.1,0,0.1,0.1,0.1,0.1c0.3,0.3,0.6,0.6,1,1c0,0.1,0.1,0.1,0.1,0.2c0.3,0.3,0.6,0.7,0.9,1c0,0.1,0.1,0.1,0.1,0.2
	c0.3,0.4,0.6,0.7,0.9,1.1c0,0,0,0.1,0.1,0.1c0,0.1-0.1,0.2-0.1,0.3c-0.1,0.3-0.3,0.6-0.4,0.9c-0.1,0.1-0.1,0.3-0.2,0.4
	c-0.2,0.4-0.3,0.7-0.5,1.1c0,0.1-0.1,0.2-0.1,0.2c-0.2,0.5-0.3,0.9-0.5,1.4c0,0.1-0.1,0.2-0.1,0.3c-0.1,0.3-0.2,0.7-0.3,1
	c0,0.1-0.1,0.3-0.1,0.4c-0.1,0.3-0.2,0.7-0.3,1c0,0.1-0.1,0.3-0.1,0.4c-0.1,0.4-0.2,0.8-0.3,1.2c0,0.1,0,0.1-0.1,0.2
	c-0.1,0.5-0.2,0.9-0.3,1.4c0,0.1,0,0.2-0.1,0.4c-0.1,0.4-0.1,0.7-0.2,1.1c0,0.1,0,0.1,0,0.2c0,0,0-0.1,0-0.1
	c-0.1-0.2-0.1-0.4-0.2-0.6c0-0.1-0.1-0.2-0.1-0.2c-0.1-0.2-0.2-0.4-0.3-0.6c0-0.1,0-0.1-0.1-0.2c-0.1-0.3-0.2-0.5-0.3-0.8
	c0-0.1-0.1-0.1-0.1-0.2c-0.1-0.2-0.2-0.4-0.3-0.6c0-0.1-0.1-0.2-0.1-0.2c-0.1-0.2-0.2-0.5-0.4-0.7c0,0,0,0,0-0.1
	c-0.1-0.2-0.3-0.5-0.4-0.7c0-0.1-0.1-0.1-0.1-0.2c-0.1-0.2-0.2-0.4-0.4-0.5c0-0.1-0.1-0.1-0.1-0.2c-0.2-0.2-0.3-0.5-0.5-0.7
	c0,0,0-0.1-0.1-0.1c-0.2-0.2-0.3-0.4-0.5-0.6c-0.1-0.1-0.1-0.1-0.2-0.2c-0.1-0.2-0.3-0.3-0.4-0.5c0-0.1-0.1-0.1-0.1-0.2
	c-0.2-0.2-0.4-0.4-0.6-0.6c0,0-0.1-0.1-0.1-0.1c-0.2-0.2-0.3-0.3-0.5-0.5c-0.1-0.1-0.1-0.1-0.2-0.2c-0.2-0.2-0.4-0.3-0.5-0.5
	c0,0-0.1-0.1-0.1-0.1c-0.2-0.2-0.4-0.4-0.7-0.5c-0.1,0-0.1-0.1-0.2-0.1c-0.2-0.1-0.4-0.3-0.5-0.4c-0.1,0-0.1-0.1-0.2-0.1
	c-0.2-0.2-0.5-0.3-0.7-0.5c-0.4-0.2-0.9-0.1-1.2,0.2c-0.3,0.4-0.1,0.9,0.2,1.2c5.6,3.6,9,9.5,9.5,16H22c0,0,0,0,0,0
	c0-0.3,0-0.5,0-0.8c0-0.2,0-0.3,0-0.5c0-0.2,0-0.5,0-0.7c0-0.2,0-0.3,0-0.5c0-0.2,0-0.5,0.1-0.7c0-0.2,0-0.3,0.1-0.5
	c0-0.2,0.1-0.4,0.1-0.7c0-0.2,0-0.3,0.1-0.5c0-0.2,0.1-0.4,0.1-0.6c0-0.2,0.1-0.3,0.1-0.5c0-0.2,0.1-0.4,0.1-0.6
	c0-0.2,0.1-0.3,0.1-0.5c0-0.2,0.1-0.4,0.1-0.6c0-0.2,0.1-0.3,0.1-0.5c0-0.2,0.1-0.4,0.2-0.6c0-0.2,0.1-0.3,0.1-0.5
	c0.1-0.2,0.1-0.4,0.2-0.6c0-0.2,0.1-0.3,0.1-0.5c0.1-0.2,0.1-0.4,0.2-0.7c0-0.2,0.1-0.3,0.1-0.5c0.1-0.2,0.2-0.5,0.2-0.7
	c0-0.1,0.1-0.3,0.1-0.4c0.1-0.4,0.3-0.7,0.4-1.1c0-0.1,0.1-0.2,0.1-0.3c0.1-0.3,0.2-0.6,0.3-0.8c0.1-0.1,0.1-0.3,0.2-0.4
	c0.1-0.2,0.2-0.4,0.3-0.6c3.6,5.4,5.5,11.4,5.5,17.5v1.6H33V51c0-6.1,1.9-12.1,5.5-17.5c0.1,0.2,0.2,0.4,0.3,0.6
	c0.1,0.1,0.1,0.3,0.2,0.4c0.1,0.3,0.2,0.6,0.4,0.9c0,0.1,0.1,0.1,0.1,0.2c0.1,0.4,0.3,0.7,0.4,1.1c0,0.1,0.1,0.2,0.1,0.3
	c0.1,0.3,0.2,0.5,0.3,0.8c0,0.1,0.1,0.3,0.1,0.4c0.1,0.2,0.1,0.5,0.2,0.7c0,0.2,0.1,0.3,0.1,0.5c0.1,0.2,0.1,0.4,0.2,0.7
	c0,0.2,0.1,0.3,0.1,0.5c0.1,0.2,0.1,0.4,0.2,0.6c0,0.2,0.1,0.3,0.1,0.5c0,0.2,0.1,0.4,0.1,0.6c0,0.2,0.1,0.3,0.1,0.5
	c0,0.2,0.1,0.4,0.1,0.6c0,0.2,0.1,0.3,0.1,0.5c0,0.2,0.1,0.4,0.1,0.7c0,0.2,0.1,0.3,0.1,0.5c0,0.2,0.1,0.4,0.1,0.7
	c0,0.2,0,0.3,0.1,0.5c0,0.2,0,0.5,0.1,0.7c0,0.2,0,0.3,0,0.5c0,0.2,0,0.5,0.1,0.7c0,0.2,0,0.3,0,0.5c0,0.3,0,0.5,0,0.8l0,0H44
	c0.5-6.5,4-12.4,9.5-16C53.9,33.2,54,32.7,53.8,32.3 M32.1,43.9c-1-4.2-2.9-8.3-5.6-12.1c1.5-3,3.4-5.8,5.6-8.4
	c2.2,2.6,4,5.4,5.6,8.4C35,35.5,33.1,39.6,32.1,43.9"/>
</svg>
